%TF.GenerationSoftware,KiCad,Pcbnew,9.0.4*%
%TF.CreationDate,2026-08-24T12:27:48-06:00*%
%TF.ProjectId,Motor_Controller_Interface_v1,4d6f746f-725f-4436-9f6e-74726f6c6c65,rev?*%
%TF.SameCoordinates,Original*%
%TF.FileFunction,Legend,Top*%
%TF.FilePolarity,Positive*%
%FSLAX46Y46*%
G04 Gerber Fmt 4.6, Leading zero omitted, Abs format (unit mm)*
G04 Created by KiCad (PCBNEW 9.0.4) date 2026-08-24 12:27:48*
%MOMM*%
%LPD*%
G01*
G04 APERTURE LIST*
%ADD10C,0.150000*%
%ADD11C,0.175000*%
%ADD12C,0.120000*%
G04 APERTURE END LIST*
D10*
X178119819Y-122136911D02*
X178119819Y-122708339D01*
X178119819Y-122422625D02*
X177119819Y-122422625D01*
X177119819Y-122422625D02*
X177262676Y-122517863D01*
X177262676Y-122517863D02*
X177357914Y-122613101D01*
X177357914Y-122613101D02*
X177405533Y-122708339D01*
X177119819Y-121517863D02*
X177119819Y-121422625D01*
X177119819Y-121422625D02*
X177167438Y-121327387D01*
X177167438Y-121327387D02*
X177215057Y-121279768D01*
X177215057Y-121279768D02*
X177310295Y-121232149D01*
X177310295Y-121232149D02*
X177500771Y-121184530D01*
X177500771Y-121184530D02*
X177738866Y-121184530D01*
X177738866Y-121184530D02*
X177929342Y-121232149D01*
X177929342Y-121232149D02*
X178024580Y-121279768D01*
X178024580Y-121279768D02*
X178072200Y-121327387D01*
X178072200Y-121327387D02*
X178119819Y-121422625D01*
X178119819Y-121422625D02*
X178119819Y-121517863D01*
X178119819Y-121517863D02*
X178072200Y-121613101D01*
X178072200Y-121613101D02*
X178024580Y-121660720D01*
X178024580Y-121660720D02*
X177929342Y-121708339D01*
X177929342Y-121708339D02*
X177738866Y-121755958D01*
X177738866Y-121755958D02*
X177500771Y-121755958D01*
X177500771Y-121755958D02*
X177310295Y-121708339D01*
X177310295Y-121708339D02*
X177215057Y-121660720D01*
X177215057Y-121660720D02*
X177167438Y-121613101D01*
X177167438Y-121613101D02*
X177119819Y-121517863D01*
X177453152Y-120755958D02*
X178453152Y-120755958D01*
X177976961Y-120279768D02*
X178072200Y-120232149D01*
X178072200Y-120232149D02*
X178119819Y-120136911D01*
X177976961Y-120755958D02*
X178072200Y-120708339D01*
X178072200Y-120708339D02*
X178119819Y-120613101D01*
X178119819Y-120613101D02*
X178119819Y-120422625D01*
X178119819Y-120422625D02*
X178072200Y-120327387D01*
X178072200Y-120327387D02*
X177976961Y-120279768D01*
X177976961Y-120279768D02*
X177453152Y-120279768D01*
X177596009Y-119375006D02*
X177596009Y-119708339D01*
X178119819Y-119708339D02*
X177119819Y-119708339D01*
X177119819Y-119708339D02*
X177119819Y-119232149D01*
X159812969Y-125867319D02*
X159336779Y-125867319D01*
X159336779Y-125867319D02*
X159289160Y-126343509D01*
X159289160Y-126343509D02*
X159336779Y-126295890D01*
X159336779Y-126295890D02*
X159432017Y-126248271D01*
X159432017Y-126248271D02*
X159670112Y-126248271D01*
X159670112Y-126248271D02*
X159765350Y-126295890D01*
X159765350Y-126295890D02*
X159812969Y-126343509D01*
X159812969Y-126343509D02*
X159860588Y-126438747D01*
X159860588Y-126438747D02*
X159860588Y-126676842D01*
X159860588Y-126676842D02*
X159812969Y-126772080D01*
X159812969Y-126772080D02*
X159765350Y-126819700D01*
X159765350Y-126819700D02*
X159670112Y-126867319D01*
X159670112Y-126867319D02*
X159432017Y-126867319D01*
X159432017Y-126867319D02*
X159336779Y-126819700D01*
X159336779Y-126819700D02*
X159289160Y-126772080D01*
X160146303Y-125867319D02*
X160479636Y-126867319D01*
X160479636Y-126867319D02*
X160812969Y-125867319D01*
X161908208Y-126867319D02*
X161908208Y-125867319D01*
X161908208Y-125867319D02*
X162289160Y-125867319D01*
X162289160Y-125867319D02*
X162384398Y-125914938D01*
X162384398Y-125914938D02*
X162432017Y-125962557D01*
X162432017Y-125962557D02*
X162479636Y-126057795D01*
X162479636Y-126057795D02*
X162479636Y-126200652D01*
X162479636Y-126200652D02*
X162432017Y-126295890D01*
X162432017Y-126295890D02*
X162384398Y-126343509D01*
X162384398Y-126343509D02*
X162289160Y-126391128D01*
X162289160Y-126391128D02*
X161908208Y-126391128D01*
X163098684Y-125867319D02*
X163289160Y-125867319D01*
X163289160Y-125867319D02*
X163384398Y-125914938D01*
X163384398Y-125914938D02*
X163479636Y-126010176D01*
X163479636Y-126010176D02*
X163527255Y-126200652D01*
X163527255Y-126200652D02*
X163527255Y-126533985D01*
X163527255Y-126533985D02*
X163479636Y-126724461D01*
X163479636Y-126724461D02*
X163384398Y-126819700D01*
X163384398Y-126819700D02*
X163289160Y-126867319D01*
X163289160Y-126867319D02*
X163098684Y-126867319D01*
X163098684Y-126867319D02*
X163003446Y-126819700D01*
X163003446Y-126819700D02*
X162908208Y-126724461D01*
X162908208Y-126724461D02*
X162860589Y-126533985D01*
X162860589Y-126533985D02*
X162860589Y-126200652D01*
X162860589Y-126200652D02*
X162908208Y-126010176D01*
X162908208Y-126010176D02*
X163003446Y-125914938D01*
X163003446Y-125914938D02*
X163098684Y-125867319D01*
X163860589Y-125867319D02*
X164098684Y-126867319D01*
X164098684Y-126867319D02*
X164289160Y-126153033D01*
X164289160Y-126153033D02*
X164479636Y-126867319D01*
X164479636Y-126867319D02*
X164717732Y-125867319D01*
X165098684Y-126343509D02*
X165432017Y-126343509D01*
X165574874Y-126867319D02*
X165098684Y-126867319D01*
X165098684Y-126867319D02*
X165098684Y-125867319D01*
X165098684Y-125867319D02*
X165574874Y-125867319D01*
X166574874Y-126867319D02*
X166241541Y-126391128D01*
X166003446Y-126867319D02*
X166003446Y-125867319D01*
X166003446Y-125867319D02*
X166384398Y-125867319D01*
X166384398Y-125867319D02*
X166479636Y-125914938D01*
X166479636Y-125914938D02*
X166527255Y-125962557D01*
X166527255Y-125962557D02*
X166574874Y-126057795D01*
X166574874Y-126057795D02*
X166574874Y-126200652D01*
X166574874Y-126200652D02*
X166527255Y-126295890D01*
X166527255Y-126295890D02*
X166479636Y-126343509D01*
X166479636Y-126343509D02*
X166384398Y-126391128D01*
X166384398Y-126391128D02*
X166003446Y-126391128D01*
X167717732Y-126819700D02*
X167860589Y-126867319D01*
X167860589Y-126867319D02*
X168098684Y-126867319D01*
X168098684Y-126867319D02*
X168193922Y-126819700D01*
X168193922Y-126819700D02*
X168241541Y-126772080D01*
X168241541Y-126772080D02*
X168289160Y-126676842D01*
X168289160Y-126676842D02*
X168289160Y-126581604D01*
X168289160Y-126581604D02*
X168241541Y-126486366D01*
X168241541Y-126486366D02*
X168193922Y-126438747D01*
X168193922Y-126438747D02*
X168098684Y-126391128D01*
X168098684Y-126391128D02*
X167908208Y-126343509D01*
X167908208Y-126343509D02*
X167812970Y-126295890D01*
X167812970Y-126295890D02*
X167765351Y-126248271D01*
X167765351Y-126248271D02*
X167717732Y-126153033D01*
X167717732Y-126153033D02*
X167717732Y-126057795D01*
X167717732Y-126057795D02*
X167765351Y-125962557D01*
X167765351Y-125962557D02*
X167812970Y-125914938D01*
X167812970Y-125914938D02*
X167908208Y-125867319D01*
X167908208Y-125867319D02*
X168146303Y-125867319D01*
X168146303Y-125867319D02*
X168289160Y-125914938D01*
X168908208Y-125867319D02*
X169098684Y-125867319D01*
X169098684Y-125867319D02*
X169193922Y-125914938D01*
X169193922Y-125914938D02*
X169289160Y-126010176D01*
X169289160Y-126010176D02*
X169336779Y-126200652D01*
X169336779Y-126200652D02*
X169336779Y-126533985D01*
X169336779Y-126533985D02*
X169289160Y-126724461D01*
X169289160Y-126724461D02*
X169193922Y-126819700D01*
X169193922Y-126819700D02*
X169098684Y-126867319D01*
X169098684Y-126867319D02*
X168908208Y-126867319D01*
X168908208Y-126867319D02*
X168812970Y-126819700D01*
X168812970Y-126819700D02*
X168717732Y-126724461D01*
X168717732Y-126724461D02*
X168670113Y-126533985D01*
X168670113Y-126533985D02*
X168670113Y-126200652D01*
X168670113Y-126200652D02*
X168717732Y-126010176D01*
X168717732Y-126010176D02*
X168812970Y-125914938D01*
X168812970Y-125914938D02*
X168908208Y-125867319D01*
X169765351Y-125867319D02*
X169765351Y-126676842D01*
X169765351Y-126676842D02*
X169812970Y-126772080D01*
X169812970Y-126772080D02*
X169860589Y-126819700D01*
X169860589Y-126819700D02*
X169955827Y-126867319D01*
X169955827Y-126867319D02*
X170146303Y-126867319D01*
X170146303Y-126867319D02*
X170241541Y-126819700D01*
X170241541Y-126819700D02*
X170289160Y-126772080D01*
X170289160Y-126772080D02*
X170336779Y-126676842D01*
X170336779Y-126676842D02*
X170336779Y-125867319D01*
X171384398Y-126867319D02*
X171051065Y-126391128D01*
X170812970Y-126867319D02*
X170812970Y-125867319D01*
X170812970Y-125867319D02*
X171193922Y-125867319D01*
X171193922Y-125867319D02*
X171289160Y-125914938D01*
X171289160Y-125914938D02*
X171336779Y-125962557D01*
X171336779Y-125962557D02*
X171384398Y-126057795D01*
X171384398Y-126057795D02*
X171384398Y-126200652D01*
X171384398Y-126200652D02*
X171336779Y-126295890D01*
X171336779Y-126295890D02*
X171289160Y-126343509D01*
X171289160Y-126343509D02*
X171193922Y-126391128D01*
X171193922Y-126391128D02*
X170812970Y-126391128D01*
X172384398Y-126772080D02*
X172336779Y-126819700D01*
X172336779Y-126819700D02*
X172193922Y-126867319D01*
X172193922Y-126867319D02*
X172098684Y-126867319D01*
X172098684Y-126867319D02*
X171955827Y-126819700D01*
X171955827Y-126819700D02*
X171860589Y-126724461D01*
X171860589Y-126724461D02*
X171812970Y-126629223D01*
X171812970Y-126629223D02*
X171765351Y-126438747D01*
X171765351Y-126438747D02*
X171765351Y-126295890D01*
X171765351Y-126295890D02*
X171812970Y-126105414D01*
X171812970Y-126105414D02*
X171860589Y-126010176D01*
X171860589Y-126010176D02*
X171955827Y-125914938D01*
X171955827Y-125914938D02*
X172098684Y-125867319D01*
X172098684Y-125867319D02*
X172193922Y-125867319D01*
X172193922Y-125867319D02*
X172336779Y-125914938D01*
X172336779Y-125914938D02*
X172384398Y-125962557D01*
X172812970Y-126343509D02*
X173146303Y-126343509D01*
X173289160Y-126867319D02*
X172812970Y-126867319D01*
X172812970Y-126867319D02*
X172812970Y-125867319D01*
X172812970Y-125867319D02*
X173289160Y-125867319D01*
X153860588Y-103604819D02*
X153289160Y-103604819D01*
X153574874Y-103604819D02*
X153574874Y-102604819D01*
X153574874Y-102604819D02*
X153479636Y-102747676D01*
X153479636Y-102747676D02*
X153384398Y-102842914D01*
X153384398Y-102842914D02*
X153289160Y-102890533D01*
X154289160Y-103604819D02*
X154289160Y-102604819D01*
X154860588Y-103604819D02*
X154432017Y-103033390D01*
X154860588Y-102604819D02*
X154289160Y-103176247D01*
X155241541Y-103604819D02*
X155479636Y-103604819D01*
X155479636Y-103604819D02*
X155479636Y-103414342D01*
X155479636Y-103414342D02*
X155384398Y-103366723D01*
X155384398Y-103366723D02*
X155289160Y-103271485D01*
X155289160Y-103271485D02*
X155241541Y-103128628D01*
X155241541Y-103128628D02*
X155241541Y-102890533D01*
X155241541Y-102890533D02*
X155289160Y-102747676D01*
X155289160Y-102747676D02*
X155384398Y-102652438D01*
X155384398Y-102652438D02*
X155527255Y-102604819D01*
X155527255Y-102604819D02*
X155717731Y-102604819D01*
X155717731Y-102604819D02*
X155860588Y-102652438D01*
X155860588Y-102652438D02*
X155955826Y-102747676D01*
X155955826Y-102747676D02*
X156003445Y-102890533D01*
X156003445Y-102890533D02*
X156003445Y-103128628D01*
X156003445Y-103128628D02*
X155955826Y-103271485D01*
X155955826Y-103271485D02*
X155860588Y-103366723D01*
X155860588Y-103366723D02*
X155765350Y-103414342D01*
X155765350Y-103414342D02*
X155765350Y-103604819D01*
X155765350Y-103604819D02*
X156003445Y-103604819D01*
X153860588Y-96619819D02*
X153289160Y-96619819D01*
X153574874Y-96619819D02*
X153574874Y-95619819D01*
X153574874Y-95619819D02*
X153479636Y-95762676D01*
X153479636Y-95762676D02*
X153384398Y-95857914D01*
X153384398Y-95857914D02*
X153289160Y-95905533D01*
X154289160Y-96619819D02*
X154289160Y-95619819D01*
X154860588Y-96619819D02*
X154432017Y-96048390D01*
X154860588Y-95619819D02*
X154289160Y-96191247D01*
X155241541Y-96619819D02*
X155479636Y-96619819D01*
X155479636Y-96619819D02*
X155479636Y-96429342D01*
X155479636Y-96429342D02*
X155384398Y-96381723D01*
X155384398Y-96381723D02*
X155289160Y-96286485D01*
X155289160Y-96286485D02*
X155241541Y-96143628D01*
X155241541Y-96143628D02*
X155241541Y-95905533D01*
X155241541Y-95905533D02*
X155289160Y-95762676D01*
X155289160Y-95762676D02*
X155384398Y-95667438D01*
X155384398Y-95667438D02*
X155527255Y-95619819D01*
X155527255Y-95619819D02*
X155717731Y-95619819D01*
X155717731Y-95619819D02*
X155860588Y-95667438D01*
X155860588Y-95667438D02*
X155955826Y-95762676D01*
X155955826Y-95762676D02*
X156003445Y-95905533D01*
X156003445Y-95905533D02*
X156003445Y-96143628D01*
X156003445Y-96143628D02*
X155955826Y-96286485D01*
X155955826Y-96286485D02*
X155860588Y-96381723D01*
X155860588Y-96381723D02*
X155765350Y-96429342D01*
X155765350Y-96429342D02*
X155765350Y-96619819D01*
X155765350Y-96619819D02*
X156003445Y-96619819D01*
X141539160Y-92715057D02*
X141586779Y-92667438D01*
X141586779Y-92667438D02*
X141682017Y-92619819D01*
X141682017Y-92619819D02*
X141920112Y-92619819D01*
X141920112Y-92619819D02*
X142015350Y-92667438D01*
X142015350Y-92667438D02*
X142062969Y-92715057D01*
X142062969Y-92715057D02*
X142110588Y-92810295D01*
X142110588Y-92810295D02*
X142110588Y-92905533D01*
X142110588Y-92905533D02*
X142062969Y-93048390D01*
X142062969Y-93048390D02*
X141491541Y-93619819D01*
X141491541Y-93619819D02*
X142110588Y-93619819D01*
X142539160Y-93619819D02*
X142539160Y-92619819D01*
X142539160Y-92619819D02*
X143110588Y-93619819D01*
X143110588Y-93619819D02*
X143110588Y-92619819D01*
X143491541Y-92619819D02*
X144110588Y-92619819D01*
X144110588Y-92619819D02*
X143777255Y-93000771D01*
X143777255Y-93000771D02*
X143920112Y-93000771D01*
X143920112Y-93000771D02*
X144015350Y-93048390D01*
X144015350Y-93048390D02*
X144062969Y-93096009D01*
X144062969Y-93096009D02*
X144110588Y-93191247D01*
X144110588Y-93191247D02*
X144110588Y-93429342D01*
X144110588Y-93429342D02*
X144062969Y-93524580D01*
X144062969Y-93524580D02*
X144015350Y-93572200D01*
X144015350Y-93572200D02*
X143920112Y-93619819D01*
X143920112Y-93619819D02*
X143634398Y-93619819D01*
X143634398Y-93619819D02*
X143539160Y-93572200D01*
X143539160Y-93572200D02*
X143491541Y-93524580D01*
X144586779Y-93619819D02*
X144777255Y-93619819D01*
X144777255Y-93619819D02*
X144872493Y-93572200D01*
X144872493Y-93572200D02*
X144920112Y-93524580D01*
X144920112Y-93524580D02*
X145015350Y-93381723D01*
X145015350Y-93381723D02*
X145062969Y-93191247D01*
X145062969Y-93191247D02*
X145062969Y-92810295D01*
X145062969Y-92810295D02*
X145015350Y-92715057D01*
X145015350Y-92715057D02*
X144967731Y-92667438D01*
X144967731Y-92667438D02*
X144872493Y-92619819D01*
X144872493Y-92619819D02*
X144682017Y-92619819D01*
X144682017Y-92619819D02*
X144586779Y-92667438D01*
X144586779Y-92667438D02*
X144539160Y-92715057D01*
X144539160Y-92715057D02*
X144491541Y-92810295D01*
X144491541Y-92810295D02*
X144491541Y-93048390D01*
X144491541Y-93048390D02*
X144539160Y-93143628D01*
X144539160Y-93143628D02*
X144586779Y-93191247D01*
X144586779Y-93191247D02*
X144682017Y-93238866D01*
X144682017Y-93238866D02*
X144872493Y-93238866D01*
X144872493Y-93238866D02*
X144967731Y-93191247D01*
X144967731Y-93191247D02*
X145015350Y-93143628D01*
X145015350Y-93143628D02*
X145062969Y-93048390D01*
X145682017Y-92619819D02*
X145777255Y-92619819D01*
X145777255Y-92619819D02*
X145872493Y-92667438D01*
X145872493Y-92667438D02*
X145920112Y-92715057D01*
X145920112Y-92715057D02*
X145967731Y-92810295D01*
X145967731Y-92810295D02*
X146015350Y-93000771D01*
X146015350Y-93000771D02*
X146015350Y-93238866D01*
X146015350Y-93238866D02*
X145967731Y-93429342D01*
X145967731Y-93429342D02*
X145920112Y-93524580D01*
X145920112Y-93524580D02*
X145872493Y-93572200D01*
X145872493Y-93572200D02*
X145777255Y-93619819D01*
X145777255Y-93619819D02*
X145682017Y-93619819D01*
X145682017Y-93619819D02*
X145586779Y-93572200D01*
X145586779Y-93572200D02*
X145539160Y-93524580D01*
X145539160Y-93524580D02*
X145491541Y-93429342D01*
X145491541Y-93429342D02*
X145443922Y-93238866D01*
X145443922Y-93238866D02*
X145443922Y-93000771D01*
X145443922Y-93000771D02*
X145491541Y-92810295D01*
X145491541Y-92810295D02*
X145539160Y-92715057D01*
X145539160Y-92715057D02*
X145586779Y-92667438D01*
X145586779Y-92667438D02*
X145682017Y-92619819D01*
X146872493Y-92953152D02*
X146872493Y-93619819D01*
X146634398Y-92572200D02*
X146396303Y-93286485D01*
X146396303Y-93286485D02*
X147015350Y-93286485D01*
X153860588Y-108119819D02*
X153289160Y-108119819D01*
X153574874Y-108119819D02*
X153574874Y-107119819D01*
X153574874Y-107119819D02*
X153479636Y-107262676D01*
X153479636Y-107262676D02*
X153384398Y-107357914D01*
X153384398Y-107357914D02*
X153289160Y-107405533D01*
X154289160Y-108119819D02*
X154289160Y-107119819D01*
X154860588Y-108119819D02*
X154432017Y-107548390D01*
X154860588Y-107119819D02*
X154289160Y-107691247D01*
X155241541Y-108119819D02*
X155479636Y-108119819D01*
X155479636Y-108119819D02*
X155479636Y-107929342D01*
X155479636Y-107929342D02*
X155384398Y-107881723D01*
X155384398Y-107881723D02*
X155289160Y-107786485D01*
X155289160Y-107786485D02*
X155241541Y-107643628D01*
X155241541Y-107643628D02*
X155241541Y-107405533D01*
X155241541Y-107405533D02*
X155289160Y-107262676D01*
X155289160Y-107262676D02*
X155384398Y-107167438D01*
X155384398Y-107167438D02*
X155527255Y-107119819D01*
X155527255Y-107119819D02*
X155717731Y-107119819D01*
X155717731Y-107119819D02*
X155860588Y-107167438D01*
X155860588Y-107167438D02*
X155955826Y-107262676D01*
X155955826Y-107262676D02*
X156003445Y-107405533D01*
X156003445Y-107405533D02*
X156003445Y-107643628D01*
X156003445Y-107643628D02*
X155955826Y-107786485D01*
X155955826Y-107786485D02*
X155860588Y-107881723D01*
X155860588Y-107881723D02*
X155765350Y-107929342D01*
X155765350Y-107929342D02*
X155765350Y-108119819D01*
X155765350Y-108119819D02*
X156003445Y-108119819D01*
X153860588Y-89369819D02*
X153289160Y-89369819D01*
X153574874Y-89369819D02*
X153574874Y-88369819D01*
X153574874Y-88369819D02*
X153479636Y-88512676D01*
X153479636Y-88512676D02*
X153384398Y-88607914D01*
X153384398Y-88607914D02*
X153289160Y-88655533D01*
X154289160Y-89369819D02*
X154289160Y-88369819D01*
X154860588Y-89369819D02*
X154432017Y-88798390D01*
X154860588Y-88369819D02*
X154289160Y-88941247D01*
X155241541Y-89369819D02*
X155479636Y-89369819D01*
X155479636Y-89369819D02*
X155479636Y-89179342D01*
X155479636Y-89179342D02*
X155384398Y-89131723D01*
X155384398Y-89131723D02*
X155289160Y-89036485D01*
X155289160Y-89036485D02*
X155241541Y-88893628D01*
X155241541Y-88893628D02*
X155241541Y-88655533D01*
X155241541Y-88655533D02*
X155289160Y-88512676D01*
X155289160Y-88512676D02*
X155384398Y-88417438D01*
X155384398Y-88417438D02*
X155527255Y-88369819D01*
X155527255Y-88369819D02*
X155717731Y-88369819D01*
X155717731Y-88369819D02*
X155860588Y-88417438D01*
X155860588Y-88417438D02*
X155955826Y-88512676D01*
X155955826Y-88512676D02*
X156003445Y-88655533D01*
X156003445Y-88655533D02*
X156003445Y-88893628D01*
X156003445Y-88893628D02*
X155955826Y-89036485D01*
X155955826Y-89036485D02*
X155860588Y-89131723D01*
X155860588Y-89131723D02*
X155765350Y-89179342D01*
X155765350Y-89179342D02*
X155765350Y-89369819D01*
X155765350Y-89369819D02*
X156003445Y-89369819D01*
X174110588Y-102119819D02*
X173539160Y-102119819D01*
X173824874Y-102119819D02*
X173824874Y-101119819D01*
X173824874Y-101119819D02*
X173729636Y-101262676D01*
X173729636Y-101262676D02*
X173634398Y-101357914D01*
X173634398Y-101357914D02*
X173539160Y-101405533D01*
X174729636Y-101119819D02*
X174824874Y-101119819D01*
X174824874Y-101119819D02*
X174920112Y-101167438D01*
X174920112Y-101167438D02*
X174967731Y-101215057D01*
X174967731Y-101215057D02*
X175015350Y-101310295D01*
X175015350Y-101310295D02*
X175062969Y-101500771D01*
X175062969Y-101500771D02*
X175062969Y-101738866D01*
X175062969Y-101738866D02*
X175015350Y-101929342D01*
X175015350Y-101929342D02*
X174967731Y-102024580D01*
X174967731Y-102024580D02*
X174920112Y-102072200D01*
X174920112Y-102072200D02*
X174824874Y-102119819D01*
X174824874Y-102119819D02*
X174729636Y-102119819D01*
X174729636Y-102119819D02*
X174634398Y-102072200D01*
X174634398Y-102072200D02*
X174586779Y-102024580D01*
X174586779Y-102024580D02*
X174539160Y-101929342D01*
X174539160Y-101929342D02*
X174491541Y-101738866D01*
X174491541Y-101738866D02*
X174491541Y-101500771D01*
X174491541Y-101500771D02*
X174539160Y-101310295D01*
X174539160Y-101310295D02*
X174586779Y-101215057D01*
X174586779Y-101215057D02*
X174634398Y-101167438D01*
X174634398Y-101167438D02*
X174729636Y-101119819D01*
X175682017Y-101119819D02*
X175777255Y-101119819D01*
X175777255Y-101119819D02*
X175872493Y-101167438D01*
X175872493Y-101167438D02*
X175920112Y-101215057D01*
X175920112Y-101215057D02*
X175967731Y-101310295D01*
X175967731Y-101310295D02*
X176015350Y-101500771D01*
X176015350Y-101500771D02*
X176015350Y-101738866D01*
X176015350Y-101738866D02*
X175967731Y-101929342D01*
X175967731Y-101929342D02*
X175920112Y-102024580D01*
X175920112Y-102024580D02*
X175872493Y-102072200D01*
X175872493Y-102072200D02*
X175777255Y-102119819D01*
X175777255Y-102119819D02*
X175682017Y-102119819D01*
X175682017Y-102119819D02*
X175586779Y-102072200D01*
X175586779Y-102072200D02*
X175539160Y-102024580D01*
X175539160Y-102024580D02*
X175491541Y-101929342D01*
X175491541Y-101929342D02*
X175443922Y-101738866D01*
X175443922Y-101738866D02*
X175443922Y-101500771D01*
X175443922Y-101500771D02*
X175491541Y-101310295D01*
X175491541Y-101310295D02*
X175539160Y-101215057D01*
X175539160Y-101215057D02*
X175586779Y-101167438D01*
X175586779Y-101167438D02*
X175682017Y-101119819D01*
X176443922Y-101453152D02*
X176443922Y-102119819D01*
X176443922Y-101548390D02*
X176491541Y-101500771D01*
X176491541Y-101500771D02*
X176586779Y-101453152D01*
X176586779Y-101453152D02*
X176729636Y-101453152D01*
X176729636Y-101453152D02*
X176824874Y-101500771D01*
X176824874Y-101500771D02*
X176872493Y-101596009D01*
X176872493Y-101596009D02*
X176872493Y-102119819D01*
X177682017Y-101596009D02*
X177348684Y-101596009D01*
X177348684Y-102119819D02*
X177348684Y-101119819D01*
X177348684Y-101119819D02*
X177824874Y-101119819D01*
X177939524Y-95269819D02*
X177939524Y-94269819D01*
X177939524Y-94269819D02*
X178510952Y-95269819D01*
X178510952Y-95269819D02*
X178510952Y-94269819D01*
X178939524Y-94984104D02*
X179415714Y-94984104D01*
X178844286Y-95269819D02*
X179177619Y-94269819D01*
X179177619Y-94269819D02*
X179510952Y-95269819D01*
X179701429Y-94269819D02*
X180034762Y-95269819D01*
X180034762Y-95269819D02*
X180368095Y-94269819D01*
X180463334Y-95365057D02*
X181225238Y-95365057D01*
X181463334Y-95269819D02*
X181463334Y-94269819D01*
X181939524Y-95269819D02*
X181939524Y-94269819D01*
X181939524Y-94269819D02*
X182510952Y-95269819D01*
X182510952Y-95269819D02*
X182510952Y-94269819D01*
X182987143Y-95269819D02*
X182987143Y-94269819D01*
X182987143Y-94269819D02*
X183368095Y-94269819D01*
X183368095Y-94269819D02*
X183463333Y-94317438D01*
X183463333Y-94317438D02*
X183510952Y-94365057D01*
X183510952Y-94365057D02*
X183558571Y-94460295D01*
X183558571Y-94460295D02*
X183558571Y-94603152D01*
X183558571Y-94603152D02*
X183510952Y-94698390D01*
X183510952Y-94698390D02*
X183463333Y-94746009D01*
X183463333Y-94746009D02*
X183368095Y-94793628D01*
X183368095Y-94793628D02*
X182987143Y-94793628D01*
X183987143Y-94269819D02*
X183987143Y-95079342D01*
X183987143Y-95079342D02*
X184034762Y-95174580D01*
X184034762Y-95174580D02*
X184082381Y-95222200D01*
X184082381Y-95222200D02*
X184177619Y-95269819D01*
X184177619Y-95269819D02*
X184368095Y-95269819D01*
X184368095Y-95269819D02*
X184463333Y-95222200D01*
X184463333Y-95222200D02*
X184510952Y-95174580D01*
X184510952Y-95174580D02*
X184558571Y-95079342D01*
X184558571Y-95079342D02*
X184558571Y-94269819D01*
X184891905Y-94269819D02*
X185463333Y-94269819D01*
X185177619Y-95269819D02*
X185177619Y-94269819D01*
X138869819Y-114187030D02*
X138869819Y-114663220D01*
X138869819Y-114663220D02*
X137869819Y-114663220D01*
X138869819Y-113853696D02*
X137869819Y-113853696D01*
X137869819Y-113853696D02*
X138584104Y-113520363D01*
X138584104Y-113520363D02*
X137869819Y-113187030D01*
X137869819Y-113187030D02*
X138869819Y-113187030D01*
X137869819Y-112520363D02*
X137869819Y-112329887D01*
X137869819Y-112329887D02*
X137917438Y-112234649D01*
X137917438Y-112234649D02*
X138012676Y-112139411D01*
X138012676Y-112139411D02*
X138203152Y-112091792D01*
X138203152Y-112091792D02*
X138536485Y-112091792D01*
X138536485Y-112091792D02*
X138726961Y-112139411D01*
X138726961Y-112139411D02*
X138822200Y-112234649D01*
X138822200Y-112234649D02*
X138869819Y-112329887D01*
X138869819Y-112329887D02*
X138869819Y-112520363D01*
X138869819Y-112520363D02*
X138822200Y-112615601D01*
X138822200Y-112615601D02*
X138726961Y-112710839D01*
X138726961Y-112710839D02*
X138536485Y-112758458D01*
X138536485Y-112758458D02*
X138203152Y-112758458D01*
X138203152Y-112758458D02*
X138012676Y-112710839D01*
X138012676Y-112710839D02*
X137917438Y-112615601D01*
X137917438Y-112615601D02*
X137869819Y-112520363D01*
X137869819Y-111806077D02*
X137869819Y-111234649D01*
X138869819Y-111520363D02*
X137869819Y-111520363D01*
X137869819Y-110710839D02*
X137869819Y-110520363D01*
X137869819Y-110520363D02*
X137917438Y-110425125D01*
X137917438Y-110425125D02*
X138012676Y-110329887D01*
X138012676Y-110329887D02*
X138203152Y-110282268D01*
X138203152Y-110282268D02*
X138536485Y-110282268D01*
X138536485Y-110282268D02*
X138726961Y-110329887D01*
X138726961Y-110329887D02*
X138822200Y-110425125D01*
X138822200Y-110425125D02*
X138869819Y-110520363D01*
X138869819Y-110520363D02*
X138869819Y-110710839D01*
X138869819Y-110710839D02*
X138822200Y-110806077D01*
X138822200Y-110806077D02*
X138726961Y-110901315D01*
X138726961Y-110901315D02*
X138536485Y-110948934D01*
X138536485Y-110948934D02*
X138203152Y-110948934D01*
X138203152Y-110948934D02*
X138012676Y-110901315D01*
X138012676Y-110901315D02*
X137917438Y-110806077D01*
X137917438Y-110806077D02*
X137869819Y-110710839D01*
X138869819Y-109282268D02*
X138393628Y-109615601D01*
X138869819Y-109853696D02*
X137869819Y-109853696D01*
X137869819Y-109853696D02*
X137869819Y-109472744D01*
X137869819Y-109472744D02*
X137917438Y-109377506D01*
X137917438Y-109377506D02*
X137965057Y-109329887D01*
X137965057Y-109329887D02*
X138060295Y-109282268D01*
X138060295Y-109282268D02*
X138203152Y-109282268D01*
X138203152Y-109282268D02*
X138298390Y-109329887D01*
X138298390Y-109329887D02*
X138346009Y-109377506D01*
X138346009Y-109377506D02*
X138393628Y-109472744D01*
X138393628Y-109472744D02*
X138393628Y-109853696D01*
D11*
X128710369Y-119538687D02*
X129281797Y-119538687D01*
X128996083Y-120538687D02*
X128996083Y-119538687D01*
X129996083Y-120491068D02*
X129900845Y-120538687D01*
X129900845Y-120538687D02*
X129710369Y-120538687D01*
X129710369Y-120538687D02*
X129615131Y-120491068D01*
X129615131Y-120491068D02*
X129567512Y-120395829D01*
X129567512Y-120395829D02*
X129567512Y-120014877D01*
X129567512Y-120014877D02*
X129615131Y-119919639D01*
X129615131Y-119919639D02*
X129710369Y-119872020D01*
X129710369Y-119872020D02*
X129900845Y-119872020D01*
X129900845Y-119872020D02*
X129996083Y-119919639D01*
X129996083Y-119919639D02*
X130043702Y-120014877D01*
X130043702Y-120014877D02*
X130043702Y-120110115D01*
X130043702Y-120110115D02*
X129567512Y-120205353D01*
X130900845Y-120491068D02*
X130805607Y-120538687D01*
X130805607Y-120538687D02*
X130615131Y-120538687D01*
X130615131Y-120538687D02*
X130519893Y-120491068D01*
X130519893Y-120491068D02*
X130472274Y-120443448D01*
X130472274Y-120443448D02*
X130424655Y-120348210D01*
X130424655Y-120348210D02*
X130424655Y-120062496D01*
X130424655Y-120062496D02*
X130472274Y-119967258D01*
X130472274Y-119967258D02*
X130519893Y-119919639D01*
X130519893Y-119919639D02*
X130615131Y-119872020D01*
X130615131Y-119872020D02*
X130805607Y-119872020D01*
X130805607Y-119872020D02*
X130900845Y-119919639D01*
X131329417Y-120538687D02*
X131329417Y-119538687D01*
X131757988Y-120538687D02*
X131757988Y-120014877D01*
X131757988Y-120014877D02*
X131710369Y-119919639D01*
X131710369Y-119919639D02*
X131615131Y-119872020D01*
X131615131Y-119872020D02*
X131472274Y-119872020D01*
X131472274Y-119872020D02*
X131377036Y-119919639D01*
X131377036Y-119919639D02*
X131329417Y-119967258D01*
X132234179Y-119872020D02*
X132234179Y-120538687D01*
X132234179Y-119967258D02*
X132281798Y-119919639D01*
X132281798Y-119919639D02*
X132377036Y-119872020D01*
X132377036Y-119872020D02*
X132519893Y-119872020D01*
X132519893Y-119872020D02*
X132615131Y-119919639D01*
X132615131Y-119919639D02*
X132662750Y-120014877D01*
X132662750Y-120014877D02*
X132662750Y-120538687D01*
X133138941Y-120538687D02*
X133138941Y-119872020D01*
X133138941Y-119538687D02*
X133091322Y-119586306D01*
X133091322Y-119586306D02*
X133138941Y-119633925D01*
X133138941Y-119633925D02*
X133186560Y-119586306D01*
X133186560Y-119586306D02*
X133138941Y-119538687D01*
X133138941Y-119538687D02*
X133138941Y-119633925D01*
X133615131Y-120538687D02*
X133615131Y-119538687D01*
X133710369Y-120157734D02*
X133996083Y-120538687D01*
X133996083Y-119872020D02*
X133615131Y-120252972D01*
X134853226Y-120538687D02*
X134853226Y-120014877D01*
X134853226Y-120014877D02*
X134805607Y-119919639D01*
X134805607Y-119919639D02*
X134710369Y-119872020D01*
X134710369Y-119872020D02*
X134519893Y-119872020D01*
X134519893Y-119872020D02*
X134424655Y-119919639D01*
X134853226Y-120491068D02*
X134757988Y-120538687D01*
X134757988Y-120538687D02*
X134519893Y-120538687D01*
X134519893Y-120538687D02*
X134424655Y-120491068D01*
X134424655Y-120491068D02*
X134377036Y-120395829D01*
X134377036Y-120395829D02*
X134377036Y-120300591D01*
X134377036Y-120300591D02*
X134424655Y-120205353D01*
X134424655Y-120205353D02*
X134519893Y-120157734D01*
X134519893Y-120157734D02*
X134757988Y-120157734D01*
X134757988Y-120157734D02*
X134853226Y-120110115D01*
X136091322Y-120014877D02*
X136424655Y-120014877D01*
X136567512Y-120538687D02*
X136091322Y-120538687D01*
X136091322Y-120538687D02*
X136091322Y-119538687D01*
X136091322Y-119538687D02*
X136567512Y-119538687D01*
X136996084Y-119872020D02*
X136996084Y-120538687D01*
X136996084Y-119967258D02*
X137043703Y-119919639D01*
X137043703Y-119919639D02*
X137138941Y-119872020D01*
X137138941Y-119872020D02*
X137281798Y-119872020D01*
X137281798Y-119872020D02*
X137377036Y-119919639D01*
X137377036Y-119919639D02*
X137424655Y-120014877D01*
X137424655Y-120014877D02*
X137424655Y-120538687D01*
X138329417Y-119872020D02*
X138329417Y-120681544D01*
X138329417Y-120681544D02*
X138281798Y-120776782D01*
X138281798Y-120776782D02*
X138234179Y-120824401D01*
X138234179Y-120824401D02*
X138138941Y-120872020D01*
X138138941Y-120872020D02*
X137996084Y-120872020D01*
X137996084Y-120872020D02*
X137900846Y-120824401D01*
X138329417Y-120491068D02*
X138234179Y-120538687D01*
X138234179Y-120538687D02*
X138043703Y-120538687D01*
X138043703Y-120538687D02*
X137948465Y-120491068D01*
X137948465Y-120491068D02*
X137900846Y-120443448D01*
X137900846Y-120443448D02*
X137853227Y-120348210D01*
X137853227Y-120348210D02*
X137853227Y-120062496D01*
X137853227Y-120062496D02*
X137900846Y-119967258D01*
X137900846Y-119967258D02*
X137948465Y-119919639D01*
X137948465Y-119919639D02*
X138043703Y-119872020D01*
X138043703Y-119872020D02*
X138234179Y-119872020D01*
X138234179Y-119872020D02*
X138329417Y-119919639D01*
X138805608Y-120538687D02*
X138805608Y-119872020D01*
X138805608Y-119538687D02*
X138757989Y-119586306D01*
X138757989Y-119586306D02*
X138805608Y-119633925D01*
X138805608Y-119633925D02*
X138853227Y-119586306D01*
X138853227Y-119586306D02*
X138805608Y-119538687D01*
X138805608Y-119538687D02*
X138805608Y-119633925D01*
X139281798Y-119872020D02*
X139281798Y-120538687D01*
X139281798Y-119967258D02*
X139329417Y-119919639D01*
X139329417Y-119919639D02*
X139424655Y-119872020D01*
X139424655Y-119872020D02*
X139567512Y-119872020D01*
X139567512Y-119872020D02*
X139662750Y-119919639D01*
X139662750Y-119919639D02*
X139710369Y-120014877D01*
X139710369Y-120014877D02*
X139710369Y-120538687D01*
X140567512Y-120491068D02*
X140472274Y-120538687D01*
X140472274Y-120538687D02*
X140281798Y-120538687D01*
X140281798Y-120538687D02*
X140186560Y-120491068D01*
X140186560Y-120491068D02*
X140138941Y-120395829D01*
X140138941Y-120395829D02*
X140138941Y-120014877D01*
X140138941Y-120014877D02*
X140186560Y-119919639D01*
X140186560Y-119919639D02*
X140281798Y-119872020D01*
X140281798Y-119872020D02*
X140472274Y-119872020D01*
X140472274Y-119872020D02*
X140567512Y-119919639D01*
X140567512Y-119919639D02*
X140615131Y-120014877D01*
X140615131Y-120014877D02*
X140615131Y-120110115D01*
X140615131Y-120110115D02*
X140138941Y-120205353D01*
X141424655Y-120491068D02*
X141329417Y-120538687D01*
X141329417Y-120538687D02*
X141138941Y-120538687D01*
X141138941Y-120538687D02*
X141043703Y-120491068D01*
X141043703Y-120491068D02*
X140996084Y-120395829D01*
X140996084Y-120395829D02*
X140996084Y-120014877D01*
X140996084Y-120014877D02*
X141043703Y-119919639D01*
X141043703Y-119919639D02*
X141138941Y-119872020D01*
X141138941Y-119872020D02*
X141329417Y-119872020D01*
X141329417Y-119872020D02*
X141424655Y-119919639D01*
X141424655Y-119919639D02*
X141472274Y-120014877D01*
X141472274Y-120014877D02*
X141472274Y-120110115D01*
X141472274Y-120110115D02*
X140996084Y-120205353D01*
X141900846Y-120538687D02*
X141900846Y-119872020D01*
X141900846Y-120062496D02*
X141948465Y-119967258D01*
X141948465Y-119967258D02*
X141996084Y-119919639D01*
X141996084Y-119919639D02*
X142091322Y-119872020D01*
X142091322Y-119872020D02*
X142186560Y-119872020D01*
X142519894Y-120538687D02*
X142519894Y-119872020D01*
X142519894Y-119538687D02*
X142472275Y-119586306D01*
X142472275Y-119586306D02*
X142519894Y-119633925D01*
X142519894Y-119633925D02*
X142567513Y-119586306D01*
X142567513Y-119586306D02*
X142519894Y-119538687D01*
X142519894Y-119538687D02*
X142519894Y-119633925D01*
X142996084Y-119872020D02*
X142996084Y-120538687D01*
X142996084Y-119967258D02*
X143043703Y-119919639D01*
X143043703Y-119919639D02*
X143138941Y-119872020D01*
X143138941Y-119872020D02*
X143281798Y-119872020D01*
X143281798Y-119872020D02*
X143377036Y-119919639D01*
X143377036Y-119919639D02*
X143424655Y-120014877D01*
X143424655Y-120014877D02*
X143424655Y-120538687D01*
X144329417Y-119872020D02*
X144329417Y-120681544D01*
X144329417Y-120681544D02*
X144281798Y-120776782D01*
X144281798Y-120776782D02*
X144234179Y-120824401D01*
X144234179Y-120824401D02*
X144138941Y-120872020D01*
X144138941Y-120872020D02*
X143996084Y-120872020D01*
X143996084Y-120872020D02*
X143900846Y-120824401D01*
X144329417Y-120491068D02*
X144234179Y-120538687D01*
X144234179Y-120538687D02*
X144043703Y-120538687D01*
X144043703Y-120538687D02*
X143948465Y-120491068D01*
X143948465Y-120491068D02*
X143900846Y-120443448D01*
X143900846Y-120443448D02*
X143853227Y-120348210D01*
X143853227Y-120348210D02*
X143853227Y-120062496D01*
X143853227Y-120062496D02*
X143900846Y-119967258D01*
X143900846Y-119967258D02*
X143948465Y-119919639D01*
X143948465Y-119919639D02*
X144043703Y-119872020D01*
X144043703Y-119872020D02*
X144234179Y-119872020D01*
X144234179Y-119872020D02*
X144329417Y-119919639D01*
X146043703Y-120538687D02*
X145567513Y-120538687D01*
X145567513Y-120538687D02*
X145567513Y-119538687D01*
X146234180Y-119872020D02*
X146615132Y-119872020D01*
X146377037Y-119538687D02*
X146377037Y-120395829D01*
X146377037Y-120395829D02*
X146424656Y-120491068D01*
X146424656Y-120491068D02*
X146519894Y-120538687D01*
X146519894Y-120538687D02*
X146615132Y-120538687D01*
X147377037Y-120538687D02*
X147377037Y-119538687D01*
X147377037Y-120491068D02*
X147281799Y-120538687D01*
X147281799Y-120538687D02*
X147091323Y-120538687D01*
X147091323Y-120538687D02*
X146996085Y-120491068D01*
X146996085Y-120491068D02*
X146948466Y-120443448D01*
X146948466Y-120443448D02*
X146900847Y-120348210D01*
X146900847Y-120348210D02*
X146900847Y-120062496D01*
X146900847Y-120062496D02*
X146948466Y-119967258D01*
X146948466Y-119967258D02*
X146996085Y-119919639D01*
X146996085Y-119919639D02*
X147091323Y-119872020D01*
X147091323Y-119872020D02*
X147281799Y-119872020D01*
X147281799Y-119872020D02*
X147377037Y-119919639D01*
X147853228Y-120443448D02*
X147900847Y-120491068D01*
X147900847Y-120491068D02*
X147853228Y-120538687D01*
X147853228Y-120538687D02*
X147805609Y-120491068D01*
X147805609Y-120491068D02*
X147853228Y-120443448D01*
X147853228Y-120443448D02*
X147853228Y-120538687D01*
X128853226Y-122148631D02*
X128853226Y-121148631D01*
X128853226Y-121148631D02*
X129091321Y-121148631D01*
X129091321Y-121148631D02*
X129234178Y-121196250D01*
X129234178Y-121196250D02*
X129329416Y-121291488D01*
X129329416Y-121291488D02*
X129377035Y-121386726D01*
X129377035Y-121386726D02*
X129424654Y-121577202D01*
X129424654Y-121577202D02*
X129424654Y-121720059D01*
X129424654Y-121720059D02*
X129377035Y-121910535D01*
X129377035Y-121910535D02*
X129329416Y-122005773D01*
X129329416Y-122005773D02*
X129234178Y-122101012D01*
X129234178Y-122101012D02*
X129091321Y-122148631D01*
X129091321Y-122148631D02*
X128853226Y-122148631D01*
X130234178Y-122101012D02*
X130138940Y-122148631D01*
X130138940Y-122148631D02*
X129948464Y-122148631D01*
X129948464Y-122148631D02*
X129853226Y-122101012D01*
X129853226Y-122101012D02*
X129805607Y-122005773D01*
X129805607Y-122005773D02*
X129805607Y-121624821D01*
X129805607Y-121624821D02*
X129853226Y-121529583D01*
X129853226Y-121529583D02*
X129948464Y-121481964D01*
X129948464Y-121481964D02*
X130138940Y-121481964D01*
X130138940Y-121481964D02*
X130234178Y-121529583D01*
X130234178Y-121529583D02*
X130281797Y-121624821D01*
X130281797Y-121624821D02*
X130281797Y-121720059D01*
X130281797Y-121720059D02*
X129805607Y-121815297D01*
X130853226Y-122148631D02*
X130757988Y-122101012D01*
X130757988Y-122101012D02*
X130710369Y-122005773D01*
X130710369Y-122005773D02*
X130710369Y-121148631D01*
X131091322Y-121481964D02*
X131472274Y-121481964D01*
X131234179Y-121148631D02*
X131234179Y-122005773D01*
X131234179Y-122005773D02*
X131281798Y-122101012D01*
X131281798Y-122101012D02*
X131377036Y-122148631D01*
X131377036Y-122148631D02*
X131472274Y-122148631D01*
X132234179Y-122148631D02*
X132234179Y-121624821D01*
X132234179Y-121624821D02*
X132186560Y-121529583D01*
X132186560Y-121529583D02*
X132091322Y-121481964D01*
X132091322Y-121481964D02*
X131900846Y-121481964D01*
X131900846Y-121481964D02*
X131805608Y-121529583D01*
X132234179Y-122101012D02*
X132138941Y-122148631D01*
X132138941Y-122148631D02*
X131900846Y-122148631D01*
X131900846Y-122148631D02*
X131805608Y-122101012D01*
X131805608Y-122101012D02*
X131757989Y-122005773D01*
X131757989Y-122005773D02*
X131757989Y-121910535D01*
X131757989Y-121910535D02*
X131805608Y-121815297D01*
X131805608Y-121815297D02*
X131900846Y-121767678D01*
X131900846Y-121767678D02*
X132138941Y-121767678D01*
X132138941Y-121767678D02*
X132234179Y-121720059D01*
X133424656Y-122101012D02*
X133567513Y-122148631D01*
X133567513Y-122148631D02*
X133805608Y-122148631D01*
X133805608Y-122148631D02*
X133900846Y-122101012D01*
X133900846Y-122101012D02*
X133948465Y-122053392D01*
X133948465Y-122053392D02*
X133996084Y-121958154D01*
X133996084Y-121958154D02*
X133996084Y-121862916D01*
X133996084Y-121862916D02*
X133948465Y-121767678D01*
X133948465Y-121767678D02*
X133900846Y-121720059D01*
X133900846Y-121720059D02*
X133805608Y-121672440D01*
X133805608Y-121672440D02*
X133615132Y-121624821D01*
X133615132Y-121624821D02*
X133519894Y-121577202D01*
X133519894Y-121577202D02*
X133472275Y-121529583D01*
X133472275Y-121529583D02*
X133424656Y-121434345D01*
X133424656Y-121434345D02*
X133424656Y-121339107D01*
X133424656Y-121339107D02*
X133472275Y-121243869D01*
X133472275Y-121243869D02*
X133519894Y-121196250D01*
X133519894Y-121196250D02*
X133615132Y-121148631D01*
X133615132Y-121148631D02*
X133853227Y-121148631D01*
X133853227Y-121148631D02*
X133996084Y-121196250D01*
X134805608Y-122101012D02*
X134710370Y-122148631D01*
X134710370Y-122148631D02*
X134519894Y-122148631D01*
X134519894Y-122148631D02*
X134424656Y-122101012D01*
X134424656Y-122101012D02*
X134377037Y-122005773D01*
X134377037Y-122005773D02*
X134377037Y-121624821D01*
X134377037Y-121624821D02*
X134424656Y-121529583D01*
X134424656Y-121529583D02*
X134519894Y-121481964D01*
X134519894Y-121481964D02*
X134710370Y-121481964D01*
X134710370Y-121481964D02*
X134805608Y-121529583D01*
X134805608Y-121529583D02*
X134853227Y-121624821D01*
X134853227Y-121624821D02*
X134853227Y-121720059D01*
X134853227Y-121720059D02*
X134377037Y-121815297D01*
X135710370Y-122148631D02*
X135710370Y-121624821D01*
X135710370Y-121624821D02*
X135662751Y-121529583D01*
X135662751Y-121529583D02*
X135567513Y-121481964D01*
X135567513Y-121481964D02*
X135377037Y-121481964D01*
X135377037Y-121481964D02*
X135281799Y-121529583D01*
X135710370Y-122101012D02*
X135615132Y-122148631D01*
X135615132Y-122148631D02*
X135377037Y-122148631D01*
X135377037Y-122148631D02*
X135281799Y-122101012D01*
X135281799Y-122101012D02*
X135234180Y-122005773D01*
X135234180Y-122005773D02*
X135234180Y-121910535D01*
X135234180Y-121910535D02*
X135281799Y-121815297D01*
X135281799Y-121815297D02*
X135377037Y-121767678D01*
X135377037Y-121767678D02*
X135615132Y-121767678D01*
X135615132Y-121767678D02*
X135710370Y-121720059D01*
X136948466Y-121767678D02*
X137710371Y-121767678D01*
X138948466Y-122148631D02*
X138948466Y-121148631D01*
X138948466Y-121148631D02*
X139281799Y-121862916D01*
X139281799Y-121862916D02*
X139615132Y-121148631D01*
X139615132Y-121148631D02*
X139615132Y-122148631D01*
X140234180Y-122148631D02*
X140138942Y-122101012D01*
X140138942Y-122101012D02*
X140091323Y-122053392D01*
X140091323Y-122053392D02*
X140043704Y-121958154D01*
X140043704Y-121958154D02*
X140043704Y-121672440D01*
X140043704Y-121672440D02*
X140091323Y-121577202D01*
X140091323Y-121577202D02*
X140138942Y-121529583D01*
X140138942Y-121529583D02*
X140234180Y-121481964D01*
X140234180Y-121481964D02*
X140377037Y-121481964D01*
X140377037Y-121481964D02*
X140472275Y-121529583D01*
X140472275Y-121529583D02*
X140519894Y-121577202D01*
X140519894Y-121577202D02*
X140567513Y-121672440D01*
X140567513Y-121672440D02*
X140567513Y-121958154D01*
X140567513Y-121958154D02*
X140519894Y-122053392D01*
X140519894Y-122053392D02*
X140472275Y-122101012D01*
X140472275Y-122101012D02*
X140377037Y-122148631D01*
X140377037Y-122148631D02*
X140234180Y-122148631D01*
X140853228Y-121481964D02*
X141234180Y-121481964D01*
X140996085Y-121148631D02*
X140996085Y-122005773D01*
X140996085Y-122005773D02*
X141043704Y-122101012D01*
X141043704Y-122101012D02*
X141138942Y-122148631D01*
X141138942Y-122148631D02*
X141234180Y-122148631D01*
X141710371Y-122148631D02*
X141615133Y-122101012D01*
X141615133Y-122101012D02*
X141567514Y-122053392D01*
X141567514Y-122053392D02*
X141519895Y-121958154D01*
X141519895Y-121958154D02*
X141519895Y-121672440D01*
X141519895Y-121672440D02*
X141567514Y-121577202D01*
X141567514Y-121577202D02*
X141615133Y-121529583D01*
X141615133Y-121529583D02*
X141710371Y-121481964D01*
X141710371Y-121481964D02*
X141853228Y-121481964D01*
X141853228Y-121481964D02*
X141948466Y-121529583D01*
X141948466Y-121529583D02*
X141996085Y-121577202D01*
X141996085Y-121577202D02*
X142043704Y-121672440D01*
X142043704Y-121672440D02*
X142043704Y-121958154D01*
X142043704Y-121958154D02*
X141996085Y-122053392D01*
X141996085Y-122053392D02*
X141948466Y-122101012D01*
X141948466Y-122101012D02*
X141853228Y-122148631D01*
X141853228Y-122148631D02*
X141710371Y-122148631D01*
X142472276Y-122148631D02*
X142472276Y-121481964D01*
X142472276Y-121672440D02*
X142519895Y-121577202D01*
X142519895Y-121577202D02*
X142567514Y-121529583D01*
X142567514Y-121529583D02*
X142662752Y-121481964D01*
X142662752Y-121481964D02*
X142757990Y-121481964D01*
X144424657Y-122053392D02*
X144377038Y-122101012D01*
X144377038Y-122101012D02*
X144234181Y-122148631D01*
X144234181Y-122148631D02*
X144138943Y-122148631D01*
X144138943Y-122148631D02*
X143996086Y-122101012D01*
X143996086Y-122101012D02*
X143900848Y-122005773D01*
X143900848Y-122005773D02*
X143853229Y-121910535D01*
X143853229Y-121910535D02*
X143805610Y-121720059D01*
X143805610Y-121720059D02*
X143805610Y-121577202D01*
X143805610Y-121577202D02*
X143853229Y-121386726D01*
X143853229Y-121386726D02*
X143900848Y-121291488D01*
X143900848Y-121291488D02*
X143996086Y-121196250D01*
X143996086Y-121196250D02*
X144138943Y-121148631D01*
X144138943Y-121148631D02*
X144234181Y-121148631D01*
X144234181Y-121148631D02*
X144377038Y-121196250D01*
X144377038Y-121196250D02*
X144424657Y-121243869D01*
X144996086Y-122148631D02*
X144900848Y-122101012D01*
X144900848Y-122101012D02*
X144853229Y-122053392D01*
X144853229Y-122053392D02*
X144805610Y-121958154D01*
X144805610Y-121958154D02*
X144805610Y-121672440D01*
X144805610Y-121672440D02*
X144853229Y-121577202D01*
X144853229Y-121577202D02*
X144900848Y-121529583D01*
X144900848Y-121529583D02*
X144996086Y-121481964D01*
X144996086Y-121481964D02*
X145138943Y-121481964D01*
X145138943Y-121481964D02*
X145234181Y-121529583D01*
X145234181Y-121529583D02*
X145281800Y-121577202D01*
X145281800Y-121577202D02*
X145329419Y-121672440D01*
X145329419Y-121672440D02*
X145329419Y-121958154D01*
X145329419Y-121958154D02*
X145281800Y-122053392D01*
X145281800Y-122053392D02*
X145234181Y-122101012D01*
X145234181Y-122101012D02*
X145138943Y-122148631D01*
X145138943Y-122148631D02*
X144996086Y-122148631D01*
X145757991Y-121481964D02*
X145757991Y-122148631D01*
X145757991Y-121577202D02*
X145805610Y-121529583D01*
X145805610Y-121529583D02*
X145900848Y-121481964D01*
X145900848Y-121481964D02*
X146043705Y-121481964D01*
X146043705Y-121481964D02*
X146138943Y-121529583D01*
X146138943Y-121529583D02*
X146186562Y-121624821D01*
X146186562Y-121624821D02*
X146186562Y-122148631D01*
X146519896Y-121481964D02*
X146900848Y-121481964D01*
X146662753Y-121148631D02*
X146662753Y-122005773D01*
X146662753Y-122005773D02*
X146710372Y-122101012D01*
X146710372Y-122101012D02*
X146805610Y-122148631D01*
X146805610Y-122148631D02*
X146900848Y-122148631D01*
X147234182Y-122148631D02*
X147234182Y-121481964D01*
X147234182Y-121672440D02*
X147281801Y-121577202D01*
X147281801Y-121577202D02*
X147329420Y-121529583D01*
X147329420Y-121529583D02*
X147424658Y-121481964D01*
X147424658Y-121481964D02*
X147519896Y-121481964D01*
X147996087Y-122148631D02*
X147900849Y-122101012D01*
X147900849Y-122101012D02*
X147853230Y-122053392D01*
X147853230Y-122053392D02*
X147805611Y-121958154D01*
X147805611Y-121958154D02*
X147805611Y-121672440D01*
X147805611Y-121672440D02*
X147853230Y-121577202D01*
X147853230Y-121577202D02*
X147900849Y-121529583D01*
X147900849Y-121529583D02*
X147996087Y-121481964D01*
X147996087Y-121481964D02*
X148138944Y-121481964D01*
X148138944Y-121481964D02*
X148234182Y-121529583D01*
X148234182Y-121529583D02*
X148281801Y-121577202D01*
X148281801Y-121577202D02*
X148329420Y-121672440D01*
X148329420Y-121672440D02*
X148329420Y-121958154D01*
X148329420Y-121958154D02*
X148281801Y-122053392D01*
X148281801Y-122053392D02*
X148234182Y-122101012D01*
X148234182Y-122101012D02*
X148138944Y-122148631D01*
X148138944Y-122148631D02*
X147996087Y-122148631D01*
X148900849Y-122148631D02*
X148805611Y-122101012D01*
X148805611Y-122101012D02*
X148757992Y-122005773D01*
X148757992Y-122005773D02*
X148757992Y-121148631D01*
X149424659Y-122148631D02*
X149329421Y-122101012D01*
X149329421Y-122101012D02*
X149281802Y-122005773D01*
X149281802Y-122005773D02*
X149281802Y-121148631D01*
X150186564Y-122101012D02*
X150091326Y-122148631D01*
X150091326Y-122148631D02*
X149900850Y-122148631D01*
X149900850Y-122148631D02*
X149805612Y-122101012D01*
X149805612Y-122101012D02*
X149757993Y-122005773D01*
X149757993Y-122005773D02*
X149757993Y-121624821D01*
X149757993Y-121624821D02*
X149805612Y-121529583D01*
X149805612Y-121529583D02*
X149900850Y-121481964D01*
X149900850Y-121481964D02*
X150091326Y-121481964D01*
X150091326Y-121481964D02*
X150186564Y-121529583D01*
X150186564Y-121529583D02*
X150234183Y-121624821D01*
X150234183Y-121624821D02*
X150234183Y-121720059D01*
X150234183Y-121720059D02*
X149757993Y-121815297D01*
X150662755Y-122148631D02*
X150662755Y-121481964D01*
X150662755Y-121672440D02*
X150710374Y-121577202D01*
X150710374Y-121577202D02*
X150757993Y-121529583D01*
X150757993Y-121529583D02*
X150853231Y-121481964D01*
X150853231Y-121481964D02*
X150948469Y-121481964D01*
X152043708Y-122148631D02*
X152043708Y-121148631D01*
X152519898Y-121481964D02*
X152519898Y-122148631D01*
X152519898Y-121577202D02*
X152567517Y-121529583D01*
X152567517Y-121529583D02*
X152662755Y-121481964D01*
X152662755Y-121481964D02*
X152805612Y-121481964D01*
X152805612Y-121481964D02*
X152900850Y-121529583D01*
X152900850Y-121529583D02*
X152948469Y-121624821D01*
X152948469Y-121624821D02*
X152948469Y-122148631D01*
X153281803Y-121481964D02*
X153662755Y-121481964D01*
X153424660Y-121148631D02*
X153424660Y-122005773D01*
X153424660Y-122005773D02*
X153472279Y-122101012D01*
X153472279Y-122101012D02*
X153567517Y-122148631D01*
X153567517Y-122148631D02*
X153662755Y-122148631D01*
X154377041Y-122101012D02*
X154281803Y-122148631D01*
X154281803Y-122148631D02*
X154091327Y-122148631D01*
X154091327Y-122148631D02*
X153996089Y-122101012D01*
X153996089Y-122101012D02*
X153948470Y-122005773D01*
X153948470Y-122005773D02*
X153948470Y-121624821D01*
X153948470Y-121624821D02*
X153996089Y-121529583D01*
X153996089Y-121529583D02*
X154091327Y-121481964D01*
X154091327Y-121481964D02*
X154281803Y-121481964D01*
X154281803Y-121481964D02*
X154377041Y-121529583D01*
X154377041Y-121529583D02*
X154424660Y-121624821D01*
X154424660Y-121624821D02*
X154424660Y-121720059D01*
X154424660Y-121720059D02*
X153948470Y-121815297D01*
X154853232Y-122148631D02*
X154853232Y-121481964D01*
X154853232Y-121672440D02*
X154900851Y-121577202D01*
X154900851Y-121577202D02*
X154948470Y-121529583D01*
X154948470Y-121529583D02*
X155043708Y-121481964D01*
X155043708Y-121481964D02*
X155138946Y-121481964D01*
X155329423Y-121481964D02*
X155710375Y-121481964D01*
X155472280Y-122148631D02*
X155472280Y-121291488D01*
X155472280Y-121291488D02*
X155519899Y-121196250D01*
X155519899Y-121196250D02*
X155615137Y-121148631D01*
X155615137Y-121148631D02*
X155710375Y-121148631D01*
X156472280Y-122148631D02*
X156472280Y-121624821D01*
X156472280Y-121624821D02*
X156424661Y-121529583D01*
X156424661Y-121529583D02*
X156329423Y-121481964D01*
X156329423Y-121481964D02*
X156138947Y-121481964D01*
X156138947Y-121481964D02*
X156043709Y-121529583D01*
X156472280Y-122101012D02*
X156377042Y-122148631D01*
X156377042Y-122148631D02*
X156138947Y-122148631D01*
X156138947Y-122148631D02*
X156043709Y-122101012D01*
X156043709Y-122101012D02*
X155996090Y-122005773D01*
X155996090Y-122005773D02*
X155996090Y-121910535D01*
X155996090Y-121910535D02*
X156043709Y-121815297D01*
X156043709Y-121815297D02*
X156138947Y-121767678D01*
X156138947Y-121767678D02*
X156377042Y-121767678D01*
X156377042Y-121767678D02*
X156472280Y-121720059D01*
X157377042Y-122101012D02*
X157281804Y-122148631D01*
X157281804Y-122148631D02*
X157091328Y-122148631D01*
X157091328Y-122148631D02*
X156996090Y-122101012D01*
X156996090Y-122101012D02*
X156948471Y-122053392D01*
X156948471Y-122053392D02*
X156900852Y-121958154D01*
X156900852Y-121958154D02*
X156900852Y-121672440D01*
X156900852Y-121672440D02*
X156948471Y-121577202D01*
X156948471Y-121577202D02*
X156996090Y-121529583D01*
X156996090Y-121529583D02*
X157091328Y-121481964D01*
X157091328Y-121481964D02*
X157281804Y-121481964D01*
X157281804Y-121481964D02*
X157377042Y-121529583D01*
X158186566Y-122101012D02*
X158091328Y-122148631D01*
X158091328Y-122148631D02*
X157900852Y-122148631D01*
X157900852Y-122148631D02*
X157805614Y-122101012D01*
X157805614Y-122101012D02*
X157757995Y-122005773D01*
X157757995Y-122005773D02*
X157757995Y-121624821D01*
X157757995Y-121624821D02*
X157805614Y-121529583D01*
X157805614Y-121529583D02*
X157900852Y-121481964D01*
X157900852Y-121481964D02*
X158091328Y-121481964D01*
X158091328Y-121481964D02*
X158186566Y-121529583D01*
X158186566Y-121529583D02*
X158234185Y-121624821D01*
X158234185Y-121624821D02*
X158234185Y-121720059D01*
X158234185Y-121720059D02*
X157757995Y-121815297D01*
X128805607Y-123472860D02*
X129281797Y-123472860D01*
X128710369Y-123758575D02*
X129043702Y-122758575D01*
X129043702Y-122758575D02*
X129377035Y-123758575D01*
X130138940Y-123091908D02*
X130138940Y-123758575D01*
X129710369Y-123091908D02*
X129710369Y-123615717D01*
X129710369Y-123615717D02*
X129757988Y-123710956D01*
X129757988Y-123710956D02*
X129853226Y-123758575D01*
X129853226Y-123758575D02*
X129996083Y-123758575D01*
X129996083Y-123758575D02*
X130091321Y-123710956D01*
X130091321Y-123710956D02*
X130138940Y-123663336D01*
X131043702Y-123091908D02*
X131043702Y-123901432D01*
X131043702Y-123901432D02*
X130996083Y-123996670D01*
X130996083Y-123996670D02*
X130948464Y-124044289D01*
X130948464Y-124044289D02*
X130853226Y-124091908D01*
X130853226Y-124091908D02*
X130710369Y-124091908D01*
X130710369Y-124091908D02*
X130615131Y-124044289D01*
X131043702Y-123710956D02*
X130948464Y-123758575D01*
X130948464Y-123758575D02*
X130757988Y-123758575D01*
X130757988Y-123758575D02*
X130662750Y-123710956D01*
X130662750Y-123710956D02*
X130615131Y-123663336D01*
X130615131Y-123663336D02*
X130567512Y-123568098D01*
X130567512Y-123568098D02*
X130567512Y-123282384D01*
X130567512Y-123282384D02*
X130615131Y-123187146D01*
X130615131Y-123187146D02*
X130662750Y-123139527D01*
X130662750Y-123139527D02*
X130757988Y-123091908D01*
X130757988Y-123091908D02*
X130948464Y-123091908D01*
X130948464Y-123091908D02*
X131043702Y-123139527D01*
X131948464Y-123091908D02*
X131948464Y-123758575D01*
X131519893Y-123091908D02*
X131519893Y-123615717D01*
X131519893Y-123615717D02*
X131567512Y-123710956D01*
X131567512Y-123710956D02*
X131662750Y-123758575D01*
X131662750Y-123758575D02*
X131805607Y-123758575D01*
X131805607Y-123758575D02*
X131900845Y-123710956D01*
X131900845Y-123710956D02*
X131948464Y-123663336D01*
X132377036Y-123710956D02*
X132472274Y-123758575D01*
X132472274Y-123758575D02*
X132662750Y-123758575D01*
X132662750Y-123758575D02*
X132757988Y-123710956D01*
X132757988Y-123710956D02*
X132805607Y-123615717D01*
X132805607Y-123615717D02*
X132805607Y-123568098D01*
X132805607Y-123568098D02*
X132757988Y-123472860D01*
X132757988Y-123472860D02*
X132662750Y-123425241D01*
X132662750Y-123425241D02*
X132519893Y-123425241D01*
X132519893Y-123425241D02*
X132424655Y-123377622D01*
X132424655Y-123377622D02*
X132377036Y-123282384D01*
X132377036Y-123282384D02*
X132377036Y-123234765D01*
X132377036Y-123234765D02*
X132424655Y-123139527D01*
X132424655Y-123139527D02*
X132519893Y-123091908D01*
X132519893Y-123091908D02*
X132662750Y-123091908D01*
X132662750Y-123091908D02*
X132757988Y-123139527D01*
X133091322Y-123091908D02*
X133472274Y-123091908D01*
X133234179Y-122758575D02*
X133234179Y-123615717D01*
X133234179Y-123615717D02*
X133281798Y-123710956D01*
X133281798Y-123710956D02*
X133377036Y-123758575D01*
X133377036Y-123758575D02*
X133472274Y-123758575D01*
X134519894Y-122853813D02*
X134567513Y-122806194D01*
X134567513Y-122806194D02*
X134662751Y-122758575D01*
X134662751Y-122758575D02*
X134900846Y-122758575D01*
X134900846Y-122758575D02*
X134996084Y-122806194D01*
X134996084Y-122806194D02*
X135043703Y-122853813D01*
X135043703Y-122853813D02*
X135091322Y-122949051D01*
X135091322Y-122949051D02*
X135091322Y-123044289D01*
X135091322Y-123044289D02*
X135043703Y-123187146D01*
X135043703Y-123187146D02*
X134472275Y-123758575D01*
X134472275Y-123758575D02*
X135091322Y-123758575D01*
X135710370Y-122758575D02*
X135805608Y-122758575D01*
X135805608Y-122758575D02*
X135900846Y-122806194D01*
X135900846Y-122806194D02*
X135948465Y-122853813D01*
X135948465Y-122853813D02*
X135996084Y-122949051D01*
X135996084Y-122949051D02*
X136043703Y-123139527D01*
X136043703Y-123139527D02*
X136043703Y-123377622D01*
X136043703Y-123377622D02*
X135996084Y-123568098D01*
X135996084Y-123568098D02*
X135948465Y-123663336D01*
X135948465Y-123663336D02*
X135900846Y-123710956D01*
X135900846Y-123710956D02*
X135805608Y-123758575D01*
X135805608Y-123758575D02*
X135710370Y-123758575D01*
X135710370Y-123758575D02*
X135615132Y-123710956D01*
X135615132Y-123710956D02*
X135567513Y-123663336D01*
X135567513Y-123663336D02*
X135519894Y-123568098D01*
X135519894Y-123568098D02*
X135472275Y-123377622D01*
X135472275Y-123377622D02*
X135472275Y-123139527D01*
X135472275Y-123139527D02*
X135519894Y-122949051D01*
X135519894Y-122949051D02*
X135567513Y-122853813D01*
X135567513Y-122853813D02*
X135615132Y-122806194D01*
X135615132Y-122806194D02*
X135710370Y-122758575D01*
X136424656Y-122853813D02*
X136472275Y-122806194D01*
X136472275Y-122806194D02*
X136567513Y-122758575D01*
X136567513Y-122758575D02*
X136805608Y-122758575D01*
X136805608Y-122758575D02*
X136900846Y-122806194D01*
X136900846Y-122806194D02*
X136948465Y-122853813D01*
X136948465Y-122853813D02*
X136996084Y-122949051D01*
X136996084Y-122949051D02*
X136996084Y-123044289D01*
X136996084Y-123044289D02*
X136948465Y-123187146D01*
X136948465Y-123187146D02*
X136377037Y-123758575D01*
X136377037Y-123758575D02*
X136996084Y-123758575D01*
X137853227Y-122758575D02*
X137662751Y-122758575D01*
X137662751Y-122758575D02*
X137567513Y-122806194D01*
X137567513Y-122806194D02*
X137519894Y-122853813D01*
X137519894Y-122853813D02*
X137424656Y-122996670D01*
X137424656Y-122996670D02*
X137377037Y-123187146D01*
X137377037Y-123187146D02*
X137377037Y-123568098D01*
X137377037Y-123568098D02*
X137424656Y-123663336D01*
X137424656Y-123663336D02*
X137472275Y-123710956D01*
X137472275Y-123710956D02*
X137567513Y-123758575D01*
X137567513Y-123758575D02*
X137757989Y-123758575D01*
X137757989Y-123758575D02*
X137853227Y-123710956D01*
X137853227Y-123710956D02*
X137900846Y-123663336D01*
X137900846Y-123663336D02*
X137948465Y-123568098D01*
X137948465Y-123568098D02*
X137948465Y-123330003D01*
X137948465Y-123330003D02*
X137900846Y-123234765D01*
X137900846Y-123234765D02*
X137853227Y-123187146D01*
X137853227Y-123187146D02*
X137757989Y-123139527D01*
X137757989Y-123139527D02*
X137567513Y-123139527D01*
X137567513Y-123139527D02*
X137472275Y-123187146D01*
X137472275Y-123187146D02*
X137424656Y-123234765D01*
X137424656Y-123234765D02*
X137377037Y-123330003D01*
X139043704Y-123091908D02*
X139281799Y-123758575D01*
X139281799Y-123758575D02*
X139519894Y-123091908D01*
X140424656Y-123758575D02*
X139853228Y-123758575D01*
X140138942Y-123758575D02*
X140138942Y-122758575D01*
X140138942Y-122758575D02*
X140043704Y-122901432D01*
X140043704Y-122901432D02*
X139948466Y-122996670D01*
X139948466Y-122996670D02*
X139853228Y-123044289D01*
D10*
X161991541Y-109369819D02*
X162658207Y-109369819D01*
X162658207Y-109369819D02*
X162229636Y-110369819D01*
X163467731Y-109703152D02*
X163467731Y-110369819D01*
X163229636Y-109322200D02*
X162991541Y-110036485D01*
X162991541Y-110036485D02*
X163610588Y-110036485D01*
X163991541Y-110369819D02*
X163991541Y-109369819D01*
X163991541Y-109846009D02*
X164562969Y-109846009D01*
X164562969Y-110369819D02*
X164562969Y-109369819D01*
X165610588Y-110274580D02*
X165562969Y-110322200D01*
X165562969Y-110322200D02*
X165420112Y-110369819D01*
X165420112Y-110369819D02*
X165324874Y-110369819D01*
X165324874Y-110369819D02*
X165182017Y-110322200D01*
X165182017Y-110322200D02*
X165086779Y-110226961D01*
X165086779Y-110226961D02*
X165039160Y-110131723D01*
X165039160Y-110131723D02*
X164991541Y-109941247D01*
X164991541Y-109941247D02*
X164991541Y-109798390D01*
X164991541Y-109798390D02*
X165039160Y-109607914D01*
X165039160Y-109607914D02*
X165086779Y-109512676D01*
X165086779Y-109512676D02*
X165182017Y-109417438D01*
X165182017Y-109417438D02*
X165324874Y-109369819D01*
X165324874Y-109369819D02*
X165420112Y-109369819D01*
X165420112Y-109369819D02*
X165562969Y-109417438D01*
X165562969Y-109417438D02*
X165610588Y-109465057D01*
X165896303Y-109369819D02*
X166467731Y-109369819D01*
X166182017Y-110369819D02*
X166182017Y-109369819D01*
X167324874Y-110369819D02*
X166753446Y-110369819D01*
X167039160Y-110369819D02*
X167039160Y-109369819D01*
X167039160Y-109369819D02*
X166943922Y-109512676D01*
X166943922Y-109512676D02*
X166848684Y-109607914D01*
X166848684Y-109607914D02*
X166753446Y-109655533D01*
X167705827Y-109465057D02*
X167753446Y-109417438D01*
X167753446Y-109417438D02*
X167848684Y-109369819D01*
X167848684Y-109369819D02*
X168086779Y-109369819D01*
X168086779Y-109369819D02*
X168182017Y-109417438D01*
X168182017Y-109417438D02*
X168229636Y-109465057D01*
X168229636Y-109465057D02*
X168277255Y-109560295D01*
X168277255Y-109560295D02*
X168277255Y-109655533D01*
X168277255Y-109655533D02*
X168229636Y-109798390D01*
X168229636Y-109798390D02*
X167658208Y-110369819D01*
X167658208Y-110369819D02*
X168277255Y-110369819D01*
X169182017Y-109369819D02*
X168705827Y-109369819D01*
X168705827Y-109369819D02*
X168658208Y-109846009D01*
X168658208Y-109846009D02*
X168705827Y-109798390D01*
X168705827Y-109798390D02*
X168801065Y-109750771D01*
X168801065Y-109750771D02*
X169039160Y-109750771D01*
X169039160Y-109750771D02*
X169134398Y-109798390D01*
X169134398Y-109798390D02*
X169182017Y-109846009D01*
X169182017Y-109846009D02*
X169229636Y-109941247D01*
X169229636Y-109941247D02*
X169229636Y-110179342D01*
X169229636Y-110179342D02*
X169182017Y-110274580D01*
X169182017Y-110274580D02*
X169134398Y-110322200D01*
X169134398Y-110322200D02*
X169039160Y-110369819D01*
X169039160Y-110369819D02*
X168801065Y-110369819D01*
X168801065Y-110369819D02*
X168705827Y-110322200D01*
X168705827Y-110322200D02*
X168658208Y-110274580D01*
X138869819Y-100091792D02*
X138393628Y-100425125D01*
X138869819Y-100663220D02*
X137869819Y-100663220D01*
X137869819Y-100663220D02*
X137869819Y-100282268D01*
X137869819Y-100282268D02*
X137917438Y-100187030D01*
X137917438Y-100187030D02*
X137965057Y-100139411D01*
X137965057Y-100139411D02*
X138060295Y-100091792D01*
X138060295Y-100091792D02*
X138203152Y-100091792D01*
X138203152Y-100091792D02*
X138298390Y-100139411D01*
X138298390Y-100139411D02*
X138346009Y-100187030D01*
X138346009Y-100187030D02*
X138393628Y-100282268D01*
X138393628Y-100282268D02*
X138393628Y-100663220D01*
X138869819Y-99663220D02*
X137869819Y-99663220D01*
X137869819Y-99663220D02*
X138584104Y-99329887D01*
X138584104Y-99329887D02*
X137869819Y-98996554D01*
X137869819Y-98996554D02*
X138869819Y-98996554D01*
X137869819Y-98329887D02*
X137869819Y-98139411D01*
X137869819Y-98139411D02*
X137917438Y-98044173D01*
X137917438Y-98044173D02*
X138012676Y-97948935D01*
X138012676Y-97948935D02*
X138203152Y-97901316D01*
X138203152Y-97901316D02*
X138536485Y-97901316D01*
X138536485Y-97901316D02*
X138726961Y-97948935D01*
X138726961Y-97948935D02*
X138822200Y-98044173D01*
X138822200Y-98044173D02*
X138869819Y-98139411D01*
X138869819Y-98139411D02*
X138869819Y-98329887D01*
X138869819Y-98329887D02*
X138822200Y-98425125D01*
X138822200Y-98425125D02*
X138726961Y-98520363D01*
X138726961Y-98520363D02*
X138536485Y-98567982D01*
X138536485Y-98567982D02*
X138203152Y-98567982D01*
X138203152Y-98567982D02*
X138012676Y-98520363D01*
X138012676Y-98520363D02*
X137917438Y-98425125D01*
X137917438Y-98425125D02*
X137869819Y-98329887D01*
X137869819Y-97615601D02*
X137869819Y-97044173D01*
X138869819Y-97329887D02*
X137869819Y-97329887D01*
X137869819Y-96520363D02*
X137869819Y-96329887D01*
X137869819Y-96329887D02*
X137917438Y-96234649D01*
X137917438Y-96234649D02*
X138012676Y-96139411D01*
X138012676Y-96139411D02*
X138203152Y-96091792D01*
X138203152Y-96091792D02*
X138536485Y-96091792D01*
X138536485Y-96091792D02*
X138726961Y-96139411D01*
X138726961Y-96139411D02*
X138822200Y-96234649D01*
X138822200Y-96234649D02*
X138869819Y-96329887D01*
X138869819Y-96329887D02*
X138869819Y-96520363D01*
X138869819Y-96520363D02*
X138822200Y-96615601D01*
X138822200Y-96615601D02*
X138726961Y-96710839D01*
X138726961Y-96710839D02*
X138536485Y-96758458D01*
X138536485Y-96758458D02*
X138203152Y-96758458D01*
X138203152Y-96758458D02*
X138012676Y-96710839D01*
X138012676Y-96710839D02*
X137917438Y-96615601D01*
X137917438Y-96615601D02*
X137869819Y-96520363D01*
X138869819Y-95091792D02*
X138393628Y-95425125D01*
X138869819Y-95663220D02*
X137869819Y-95663220D01*
X137869819Y-95663220D02*
X137869819Y-95282268D01*
X137869819Y-95282268D02*
X137917438Y-95187030D01*
X137917438Y-95187030D02*
X137965057Y-95139411D01*
X137965057Y-95139411D02*
X138060295Y-95091792D01*
X138060295Y-95091792D02*
X138203152Y-95091792D01*
X138203152Y-95091792D02*
X138298390Y-95139411D01*
X138298390Y-95139411D02*
X138346009Y-95187030D01*
X138346009Y-95187030D02*
X138393628Y-95282268D01*
X138393628Y-95282268D02*
X138393628Y-95663220D01*
X141539160Y-106465057D02*
X141586779Y-106417438D01*
X141586779Y-106417438D02*
X141682017Y-106369819D01*
X141682017Y-106369819D02*
X141920112Y-106369819D01*
X141920112Y-106369819D02*
X142015350Y-106417438D01*
X142015350Y-106417438D02*
X142062969Y-106465057D01*
X142062969Y-106465057D02*
X142110588Y-106560295D01*
X142110588Y-106560295D02*
X142110588Y-106655533D01*
X142110588Y-106655533D02*
X142062969Y-106798390D01*
X142062969Y-106798390D02*
X141491541Y-107369819D01*
X141491541Y-107369819D02*
X142110588Y-107369819D01*
X142539160Y-107369819D02*
X142539160Y-106369819D01*
X142539160Y-106369819D02*
X143110588Y-107369819D01*
X143110588Y-107369819D02*
X143110588Y-106369819D01*
X143491541Y-106369819D02*
X144110588Y-106369819D01*
X144110588Y-106369819D02*
X143777255Y-106750771D01*
X143777255Y-106750771D02*
X143920112Y-106750771D01*
X143920112Y-106750771D02*
X144015350Y-106798390D01*
X144015350Y-106798390D02*
X144062969Y-106846009D01*
X144062969Y-106846009D02*
X144110588Y-106941247D01*
X144110588Y-106941247D02*
X144110588Y-107179342D01*
X144110588Y-107179342D02*
X144062969Y-107274580D01*
X144062969Y-107274580D02*
X144015350Y-107322200D01*
X144015350Y-107322200D02*
X143920112Y-107369819D01*
X143920112Y-107369819D02*
X143634398Y-107369819D01*
X143634398Y-107369819D02*
X143539160Y-107322200D01*
X143539160Y-107322200D02*
X143491541Y-107274580D01*
X144586779Y-107369819D02*
X144777255Y-107369819D01*
X144777255Y-107369819D02*
X144872493Y-107322200D01*
X144872493Y-107322200D02*
X144920112Y-107274580D01*
X144920112Y-107274580D02*
X145015350Y-107131723D01*
X145015350Y-107131723D02*
X145062969Y-106941247D01*
X145062969Y-106941247D02*
X145062969Y-106560295D01*
X145062969Y-106560295D02*
X145015350Y-106465057D01*
X145015350Y-106465057D02*
X144967731Y-106417438D01*
X144967731Y-106417438D02*
X144872493Y-106369819D01*
X144872493Y-106369819D02*
X144682017Y-106369819D01*
X144682017Y-106369819D02*
X144586779Y-106417438D01*
X144586779Y-106417438D02*
X144539160Y-106465057D01*
X144539160Y-106465057D02*
X144491541Y-106560295D01*
X144491541Y-106560295D02*
X144491541Y-106798390D01*
X144491541Y-106798390D02*
X144539160Y-106893628D01*
X144539160Y-106893628D02*
X144586779Y-106941247D01*
X144586779Y-106941247D02*
X144682017Y-106988866D01*
X144682017Y-106988866D02*
X144872493Y-106988866D01*
X144872493Y-106988866D02*
X144967731Y-106941247D01*
X144967731Y-106941247D02*
X145015350Y-106893628D01*
X145015350Y-106893628D02*
X145062969Y-106798390D01*
X145682017Y-106369819D02*
X145777255Y-106369819D01*
X145777255Y-106369819D02*
X145872493Y-106417438D01*
X145872493Y-106417438D02*
X145920112Y-106465057D01*
X145920112Y-106465057D02*
X145967731Y-106560295D01*
X145967731Y-106560295D02*
X146015350Y-106750771D01*
X146015350Y-106750771D02*
X146015350Y-106988866D01*
X146015350Y-106988866D02*
X145967731Y-107179342D01*
X145967731Y-107179342D02*
X145920112Y-107274580D01*
X145920112Y-107274580D02*
X145872493Y-107322200D01*
X145872493Y-107322200D02*
X145777255Y-107369819D01*
X145777255Y-107369819D02*
X145682017Y-107369819D01*
X145682017Y-107369819D02*
X145586779Y-107322200D01*
X145586779Y-107322200D02*
X145539160Y-107274580D01*
X145539160Y-107274580D02*
X145491541Y-107179342D01*
X145491541Y-107179342D02*
X145443922Y-106988866D01*
X145443922Y-106988866D02*
X145443922Y-106750771D01*
X145443922Y-106750771D02*
X145491541Y-106560295D01*
X145491541Y-106560295D02*
X145539160Y-106465057D01*
X145539160Y-106465057D02*
X145586779Y-106417438D01*
X145586779Y-106417438D02*
X145682017Y-106369819D01*
X146872493Y-106703152D02*
X146872493Y-107369819D01*
X146634398Y-106322200D02*
X146396303Y-107036485D01*
X146396303Y-107036485D02*
X147015350Y-107036485D01*
X128202319Y-111833333D02*
X128916604Y-111833333D01*
X128916604Y-111833333D02*
X129059461Y-111880952D01*
X129059461Y-111880952D02*
X129154700Y-111976190D01*
X129154700Y-111976190D02*
X129202319Y-112119047D01*
X129202319Y-112119047D02*
X129202319Y-112214285D01*
X128202319Y-111452380D02*
X128202319Y-110833333D01*
X128202319Y-110833333D02*
X128583271Y-111166666D01*
X128583271Y-111166666D02*
X128583271Y-111023809D01*
X128583271Y-111023809D02*
X128630890Y-110928571D01*
X128630890Y-110928571D02*
X128678509Y-110880952D01*
X128678509Y-110880952D02*
X128773747Y-110833333D01*
X128773747Y-110833333D02*
X129011842Y-110833333D01*
X129011842Y-110833333D02*
X129107080Y-110880952D01*
X129107080Y-110880952D02*
X129154700Y-110928571D01*
X129154700Y-110928571D02*
X129202319Y-111023809D01*
X129202319Y-111023809D02*
X129202319Y-111309523D01*
X129202319Y-111309523D02*
X129154700Y-111404761D01*
X129154700Y-111404761D02*
X129107080Y-111452380D01*
X150583333Y-94804819D02*
X150250000Y-94328628D01*
X150011905Y-94804819D02*
X150011905Y-93804819D01*
X150011905Y-93804819D02*
X150392857Y-93804819D01*
X150392857Y-93804819D02*
X150488095Y-93852438D01*
X150488095Y-93852438D02*
X150535714Y-93900057D01*
X150535714Y-93900057D02*
X150583333Y-93995295D01*
X150583333Y-93995295D02*
X150583333Y-94138152D01*
X150583333Y-94138152D02*
X150535714Y-94233390D01*
X150535714Y-94233390D02*
X150488095Y-94281009D01*
X150488095Y-94281009D02*
X150392857Y-94328628D01*
X150392857Y-94328628D02*
X150011905Y-94328628D01*
X150964286Y-93900057D02*
X151011905Y-93852438D01*
X151011905Y-93852438D02*
X151107143Y-93804819D01*
X151107143Y-93804819D02*
X151345238Y-93804819D01*
X151345238Y-93804819D02*
X151440476Y-93852438D01*
X151440476Y-93852438D02*
X151488095Y-93900057D01*
X151488095Y-93900057D02*
X151535714Y-93995295D01*
X151535714Y-93995295D02*
X151535714Y-94090533D01*
X151535714Y-94090533D02*
X151488095Y-94233390D01*
X151488095Y-94233390D02*
X150916667Y-94804819D01*
X150916667Y-94804819D02*
X151535714Y-94804819D01*
X165666666Y-116182319D02*
X165666666Y-116896604D01*
X165666666Y-116896604D02*
X165619047Y-117039461D01*
X165619047Y-117039461D02*
X165523809Y-117134700D01*
X165523809Y-117134700D02*
X165380952Y-117182319D01*
X165380952Y-117182319D02*
X165285714Y-117182319D01*
X166571428Y-116515652D02*
X166571428Y-117182319D01*
X166333333Y-116134700D02*
X166095238Y-116848985D01*
X166095238Y-116848985D02*
X166714285Y-116848985D01*
X150583333Y-87804819D02*
X150250000Y-87328628D01*
X150011905Y-87804819D02*
X150011905Y-86804819D01*
X150011905Y-86804819D02*
X150392857Y-86804819D01*
X150392857Y-86804819D02*
X150488095Y-86852438D01*
X150488095Y-86852438D02*
X150535714Y-86900057D01*
X150535714Y-86900057D02*
X150583333Y-86995295D01*
X150583333Y-86995295D02*
X150583333Y-87138152D01*
X150583333Y-87138152D02*
X150535714Y-87233390D01*
X150535714Y-87233390D02*
X150488095Y-87281009D01*
X150488095Y-87281009D02*
X150392857Y-87328628D01*
X150392857Y-87328628D02*
X150011905Y-87328628D01*
X151535714Y-87804819D02*
X150964286Y-87804819D01*
X151250000Y-87804819D02*
X151250000Y-86804819D01*
X151250000Y-86804819D02*
X151154762Y-86947676D01*
X151154762Y-86947676D02*
X151059524Y-87042914D01*
X151059524Y-87042914D02*
X150964286Y-87090533D01*
X164713095Y-98214819D02*
X164713095Y-99024342D01*
X164713095Y-99024342D02*
X164760714Y-99119580D01*
X164760714Y-99119580D02*
X164808333Y-99167200D01*
X164808333Y-99167200D02*
X164903571Y-99214819D01*
X164903571Y-99214819D02*
X165094047Y-99214819D01*
X165094047Y-99214819D02*
X165189285Y-99167200D01*
X165189285Y-99167200D02*
X165236904Y-99119580D01*
X165236904Y-99119580D02*
X165284523Y-99024342D01*
X165284523Y-99024342D02*
X165284523Y-98214819D01*
X166284523Y-99214819D02*
X165713095Y-99214819D01*
X165998809Y-99214819D02*
X165998809Y-98214819D01*
X165998809Y-98214819D02*
X165903571Y-98357676D01*
X165903571Y-98357676D02*
X165808333Y-98452914D01*
X165808333Y-98452914D02*
X165713095Y-98500533D01*
X150583333Y-106704819D02*
X150250000Y-106228628D01*
X150011905Y-106704819D02*
X150011905Y-105704819D01*
X150011905Y-105704819D02*
X150392857Y-105704819D01*
X150392857Y-105704819D02*
X150488095Y-105752438D01*
X150488095Y-105752438D02*
X150535714Y-105800057D01*
X150535714Y-105800057D02*
X150583333Y-105895295D01*
X150583333Y-105895295D02*
X150583333Y-106038152D01*
X150583333Y-106038152D02*
X150535714Y-106133390D01*
X150535714Y-106133390D02*
X150488095Y-106181009D01*
X150488095Y-106181009D02*
X150392857Y-106228628D01*
X150392857Y-106228628D02*
X150011905Y-106228628D01*
X151440476Y-106038152D02*
X151440476Y-106704819D01*
X151202381Y-105657200D02*
X150964286Y-106371485D01*
X150964286Y-106371485D02*
X151583333Y-106371485D01*
X181296666Y-85894819D02*
X181296666Y-86609104D01*
X181296666Y-86609104D02*
X181249047Y-86751961D01*
X181249047Y-86751961D02*
X181153809Y-86847200D01*
X181153809Y-86847200D02*
X181010952Y-86894819D01*
X181010952Y-86894819D02*
X180915714Y-86894819D01*
X182296666Y-86894819D02*
X181725238Y-86894819D01*
X182010952Y-86894819D02*
X182010952Y-85894819D01*
X182010952Y-85894819D02*
X181915714Y-86037676D01*
X181915714Y-86037676D02*
X181820476Y-86132914D01*
X181820476Y-86132914D02*
X181725238Y-86180533D01*
X127934819Y-97833333D02*
X128649104Y-97833333D01*
X128649104Y-97833333D02*
X128791961Y-97880952D01*
X128791961Y-97880952D02*
X128887200Y-97976190D01*
X128887200Y-97976190D02*
X128934819Y-98119047D01*
X128934819Y-98119047D02*
X128934819Y-98214285D01*
X128030057Y-97404761D02*
X127982438Y-97357142D01*
X127982438Y-97357142D02*
X127934819Y-97261904D01*
X127934819Y-97261904D02*
X127934819Y-97023809D01*
X127934819Y-97023809D02*
X127982438Y-96928571D01*
X127982438Y-96928571D02*
X128030057Y-96880952D01*
X128030057Y-96880952D02*
X128125295Y-96833333D01*
X128125295Y-96833333D02*
X128220533Y-96833333D01*
X128220533Y-96833333D02*
X128363390Y-96880952D01*
X128363390Y-96880952D02*
X128934819Y-97452380D01*
X128934819Y-97452380D02*
X128934819Y-96833333D01*
X144404761Y-86990057D02*
X144309523Y-86942438D01*
X144309523Y-86942438D02*
X144214285Y-86847200D01*
X144214285Y-86847200D02*
X144071428Y-86704342D01*
X144071428Y-86704342D02*
X143976190Y-86656723D01*
X143976190Y-86656723D02*
X143880952Y-86656723D01*
X143928571Y-86894819D02*
X143833333Y-86847200D01*
X143833333Y-86847200D02*
X143738095Y-86751961D01*
X143738095Y-86751961D02*
X143690476Y-86561485D01*
X143690476Y-86561485D02*
X143690476Y-86228152D01*
X143690476Y-86228152D02*
X143738095Y-86037676D01*
X143738095Y-86037676D02*
X143833333Y-85942438D01*
X143833333Y-85942438D02*
X143928571Y-85894819D01*
X143928571Y-85894819D02*
X144119047Y-85894819D01*
X144119047Y-85894819D02*
X144214285Y-85942438D01*
X144214285Y-85942438D02*
X144309523Y-86037676D01*
X144309523Y-86037676D02*
X144357142Y-86228152D01*
X144357142Y-86228152D02*
X144357142Y-86561485D01*
X144357142Y-86561485D02*
X144309523Y-86751961D01*
X144309523Y-86751961D02*
X144214285Y-86847200D01*
X144214285Y-86847200D02*
X144119047Y-86894819D01*
X144119047Y-86894819D02*
X143928571Y-86894819D01*
X144738095Y-85990057D02*
X144785714Y-85942438D01*
X144785714Y-85942438D02*
X144880952Y-85894819D01*
X144880952Y-85894819D02*
X145119047Y-85894819D01*
X145119047Y-85894819D02*
X145214285Y-85942438D01*
X145214285Y-85942438D02*
X145261904Y-85990057D01*
X145261904Y-85990057D02*
X145309523Y-86085295D01*
X145309523Y-86085295D02*
X145309523Y-86180533D01*
X145309523Y-86180533D02*
X145261904Y-86323390D01*
X145261904Y-86323390D02*
X144690476Y-86894819D01*
X144690476Y-86894819D02*
X145309523Y-86894819D01*
X175295833Y-98179580D02*
X175248214Y-98227200D01*
X175248214Y-98227200D02*
X175105357Y-98274819D01*
X175105357Y-98274819D02*
X175010119Y-98274819D01*
X175010119Y-98274819D02*
X174867262Y-98227200D01*
X174867262Y-98227200D02*
X174772024Y-98131961D01*
X174772024Y-98131961D02*
X174724405Y-98036723D01*
X174724405Y-98036723D02*
X174676786Y-97846247D01*
X174676786Y-97846247D02*
X174676786Y-97703390D01*
X174676786Y-97703390D02*
X174724405Y-97512914D01*
X174724405Y-97512914D02*
X174772024Y-97417676D01*
X174772024Y-97417676D02*
X174867262Y-97322438D01*
X174867262Y-97322438D02*
X175010119Y-97274819D01*
X175010119Y-97274819D02*
X175105357Y-97274819D01*
X175105357Y-97274819D02*
X175248214Y-97322438D01*
X175248214Y-97322438D02*
X175295833Y-97370057D01*
X176248214Y-98274819D02*
X175676786Y-98274819D01*
X175962500Y-98274819D02*
X175962500Y-97274819D01*
X175962500Y-97274819D02*
X175867262Y-97417676D01*
X175867262Y-97417676D02*
X175772024Y-97512914D01*
X175772024Y-97512914D02*
X175676786Y-97560533D01*
X143904761Y-100850057D02*
X143809523Y-100802438D01*
X143809523Y-100802438D02*
X143714285Y-100707200D01*
X143714285Y-100707200D02*
X143571428Y-100564342D01*
X143571428Y-100564342D02*
X143476190Y-100516723D01*
X143476190Y-100516723D02*
X143380952Y-100516723D01*
X143428571Y-100754819D02*
X143333333Y-100707200D01*
X143333333Y-100707200D02*
X143238095Y-100611961D01*
X143238095Y-100611961D02*
X143190476Y-100421485D01*
X143190476Y-100421485D02*
X143190476Y-100088152D01*
X143190476Y-100088152D02*
X143238095Y-99897676D01*
X143238095Y-99897676D02*
X143333333Y-99802438D01*
X143333333Y-99802438D02*
X143428571Y-99754819D01*
X143428571Y-99754819D02*
X143619047Y-99754819D01*
X143619047Y-99754819D02*
X143714285Y-99802438D01*
X143714285Y-99802438D02*
X143809523Y-99897676D01*
X143809523Y-99897676D02*
X143857142Y-100088152D01*
X143857142Y-100088152D02*
X143857142Y-100421485D01*
X143857142Y-100421485D02*
X143809523Y-100611961D01*
X143809523Y-100611961D02*
X143714285Y-100707200D01*
X143714285Y-100707200D02*
X143619047Y-100754819D01*
X143619047Y-100754819D02*
X143428571Y-100754819D01*
X144809523Y-100754819D02*
X144238095Y-100754819D01*
X144523809Y-100754819D02*
X144523809Y-99754819D01*
X144523809Y-99754819D02*
X144428571Y-99897676D01*
X144428571Y-99897676D02*
X144333333Y-99992914D01*
X144333333Y-99992914D02*
X144238095Y-100040533D01*
X150833333Y-101804819D02*
X150500000Y-101328628D01*
X150261905Y-101804819D02*
X150261905Y-100804819D01*
X150261905Y-100804819D02*
X150642857Y-100804819D01*
X150642857Y-100804819D02*
X150738095Y-100852438D01*
X150738095Y-100852438D02*
X150785714Y-100900057D01*
X150785714Y-100900057D02*
X150833333Y-100995295D01*
X150833333Y-100995295D02*
X150833333Y-101138152D01*
X150833333Y-101138152D02*
X150785714Y-101233390D01*
X150785714Y-101233390D02*
X150738095Y-101281009D01*
X150738095Y-101281009D02*
X150642857Y-101328628D01*
X150642857Y-101328628D02*
X150261905Y-101328628D01*
X151166667Y-100804819D02*
X151785714Y-100804819D01*
X151785714Y-100804819D02*
X151452381Y-101185771D01*
X151452381Y-101185771D02*
X151595238Y-101185771D01*
X151595238Y-101185771D02*
X151690476Y-101233390D01*
X151690476Y-101233390D02*
X151738095Y-101281009D01*
X151738095Y-101281009D02*
X151785714Y-101376247D01*
X151785714Y-101376247D02*
X151785714Y-101614342D01*
X151785714Y-101614342D02*
X151738095Y-101709580D01*
X151738095Y-101709580D02*
X151690476Y-101757200D01*
X151690476Y-101757200D02*
X151595238Y-101804819D01*
X151595238Y-101804819D02*
X151309524Y-101804819D01*
X151309524Y-101804819D02*
X151214286Y-101757200D01*
X151214286Y-101757200D02*
X151166667Y-101709580D01*
X176209580Y-121351666D02*
X176257200Y-121399285D01*
X176257200Y-121399285D02*
X176304819Y-121542142D01*
X176304819Y-121542142D02*
X176304819Y-121637380D01*
X176304819Y-121637380D02*
X176257200Y-121780237D01*
X176257200Y-121780237D02*
X176161961Y-121875475D01*
X176161961Y-121875475D02*
X176066723Y-121923094D01*
X176066723Y-121923094D02*
X175876247Y-121970713D01*
X175876247Y-121970713D02*
X175733390Y-121970713D01*
X175733390Y-121970713D02*
X175542914Y-121923094D01*
X175542914Y-121923094D02*
X175447676Y-121875475D01*
X175447676Y-121875475D02*
X175352438Y-121780237D01*
X175352438Y-121780237D02*
X175304819Y-121637380D01*
X175304819Y-121637380D02*
X175304819Y-121542142D01*
X175304819Y-121542142D02*
X175352438Y-121399285D01*
X175352438Y-121399285D02*
X175400057Y-121351666D01*
X175400057Y-120970713D02*
X175352438Y-120923094D01*
X175352438Y-120923094D02*
X175304819Y-120827856D01*
X175304819Y-120827856D02*
X175304819Y-120589761D01*
X175304819Y-120589761D02*
X175352438Y-120494523D01*
X175352438Y-120494523D02*
X175400057Y-120446904D01*
X175400057Y-120446904D02*
X175495295Y-120399285D01*
X175495295Y-120399285D02*
X175590533Y-120399285D01*
X175590533Y-120399285D02*
X175733390Y-120446904D01*
X175733390Y-120446904D02*
X176304819Y-121018332D01*
X176304819Y-121018332D02*
X176304819Y-120399285D01*
D12*
%TO.C,J3*%
X129747500Y-105780000D02*
X136987500Y-105780000D01*
X129747500Y-117220000D02*
X129747500Y-105780000D01*
X135367500Y-117220000D02*
X135367500Y-105780000D01*
X136987500Y-105780000D02*
X136987500Y-114700000D01*
X136987500Y-115300000D02*
X136987500Y-117220000D01*
X136987500Y-117220000D02*
X129747500Y-117220000D01*
X137597500Y-115440000D02*
X136987500Y-115000000D01*
X137597500Y-114560000D01*
X137597500Y-115440000D01*
G36*
X137597500Y-115440000D02*
G01*
X136987500Y-115000000D01*
X137597500Y-114560000D01*
X137597500Y-115440000D01*
G37*
%TO.C,R2*%
X150522936Y-95265000D02*
X150977064Y-95265000D01*
X150522936Y-96735000D02*
X150977064Y-96735000D01*
%TO.C,J4*%
X162030000Y-117727500D02*
X169970000Y-117727500D01*
X162030000Y-123347500D02*
X169970000Y-123347500D01*
X162030000Y-124967500D02*
X162030000Y-117727500D01*
X163950000Y-124967500D02*
X162030000Y-124967500D01*
X169970000Y-117727500D02*
X169970000Y-124967500D01*
X169970000Y-124967500D02*
X164550000Y-124967500D01*
X164690000Y-125577500D02*
X163810000Y-125577500D01*
X164250000Y-124967500D01*
X164690000Y-125577500D01*
G36*
X164690000Y-125577500D02*
G01*
X163810000Y-125577500D01*
X164250000Y-124967500D01*
X164690000Y-125577500D01*
G37*
%TO.C,R1*%
X150522936Y-88265000D02*
X150977064Y-88265000D01*
X150522936Y-89735000D02*
X150977064Y-89735000D01*
%TO.C,U1*%
X165475000Y-99605000D02*
X163525000Y-99605000D01*
X165475000Y-99605000D02*
X167425000Y-99605000D01*
X165475000Y-108475000D02*
X163525000Y-108475000D01*
X165475000Y-108475000D02*
X167425000Y-108475000D01*
X162775000Y-99670000D02*
X162535000Y-99340000D01*
X163015000Y-99340000D01*
X162775000Y-99670000D01*
G36*
X162775000Y-99670000D02*
G01*
X162535000Y-99340000D01*
X163015000Y-99340000D01*
X162775000Y-99670000D01*
G37*
%TO.C,R4*%
X150522936Y-107265000D02*
X150977064Y-107265000D01*
X150522936Y-108735000D02*
X150977064Y-108735000D01*
%TO.C,J1*%
X176770000Y-90700000D02*
X176770000Y-92300000D01*
X176770000Y-92300000D02*
X178570000Y-92300000D01*
X178040000Y-87830000D02*
X185220000Y-87830000D01*
X178570000Y-92300000D02*
X178570000Y-93240000D01*
X186490000Y-90700000D02*
X186490000Y-92300000D01*
X186490000Y-92300000D02*
X184690000Y-92300000D01*
%TO.C,J2*%
X129480000Y-91780000D02*
X136720000Y-91780000D01*
X129480000Y-103220000D02*
X129480000Y-91780000D01*
X135100000Y-103220000D02*
X135100000Y-91780000D01*
X136720000Y-91780000D02*
X136720000Y-100700000D01*
X136720000Y-101300000D02*
X136720000Y-103220000D01*
X136720000Y-103220000D02*
X129480000Y-103220000D01*
X137330000Y-101440000D02*
X136720000Y-101000000D01*
X137330000Y-100560000D01*
X137330000Y-101440000D01*
G36*
X137330000Y-101440000D02*
G01*
X136720000Y-101000000D01*
X137330000Y-100560000D01*
X137330000Y-101440000D01*
G37*
%TO.C,Q2*%
X142700000Y-91850000D02*
X146300000Y-91850000D01*
X142661522Y-91838478D02*
G75*
G02*
X144500000Y-87399999I1838478J1838478D01*
G01*
X144500000Y-87400000D02*
G75*
G02*
X146338478Y-91838478I0J-2600000D01*
G01*
%TO.C,C1*%
X175201248Y-98765000D02*
X175723752Y-98765000D01*
X175201248Y-100235000D02*
X175723752Y-100235000D01*
%TO.C,Q1*%
X142200000Y-105710000D02*
X145800000Y-105710000D01*
X142161522Y-105698478D02*
G75*
G02*
X144000000Y-101259999I1838478J1838478D01*
G01*
X144000000Y-101260000D02*
G75*
G02*
X145838478Y-105698478I0J-2600000D01*
G01*
%TO.C,R3*%
X150772936Y-102265000D02*
X151227064Y-102265000D01*
X150772936Y-103735000D02*
X151227064Y-103735000D01*
%TO.C,C2*%
X173090000Y-120473748D02*
X173090000Y-121896252D01*
X174910000Y-120473748D02*
X174910000Y-121896252D01*
%TD*%
M02*
