M48
; DRILL file {KiCad 9.0.4} date 2026-08-24T12:27:54-0600
; FORMAT={-:-/ absolute / metric / decimal}
; #@! TF.CreationDate,2026-08-24T12:27:54-06:00
; #@! TF.GenerationSoftware,Kicad,Pcbnew,9.0.4
; #@! TF.FileFunction,Plated,1,2,PTH
FMAT,2
METRIC
; #@! TA.AperFunction,Plated,PTH,ViaDrill
T1C0.300
; #@! TA.AperFunction,Plated,PTH,ComponentDrill
T2C0.750
; #@! TA.AperFunction,Plated,PTH,ComponentDrill
T3C1.200
%
G90
G05
T1
X154.75Y-96.25
X161.5Y-100.25
X161.5Y-104.0
X161.5Y-107.75
X169.42Y-106.58
X169.686Y-102.814
X177.5Y-122.747
X180.0Y-99.5
X184.2Y-96.39
T2
X142.73Y-103.86
X143.23Y-90.0
X144.0Y-103.86
X144.5Y-90.0
X145.27Y-103.86
X145.77Y-90.0
T3
X133.0Y-94.0
X133.0Y-97.5
X133.0Y-101.0
X133.267Y-108.0
X133.267Y-111.5
X133.267Y-115.0
X164.25Y-121.247
X167.75Y-121.247
M30
