%TF.GenerationSoftware,KiCad,Pcbnew,9.0.4*%
%TF.CreationDate,2026-08-24T12:27:48-06:00*%
%TF.ProjectId,Motor_Controller_Interface_v1,4d6f746f-725f-4436-9f6e-74726f6c6c65,rev?*%
%TF.SameCoordinates,Original*%
%TF.FileFunction,Soldermask,Top*%
%TF.FilePolarity,Negative*%
%FSLAX46Y46*%
G04 Gerber Fmt 4.6, Leading zero omitted, Abs format (unit mm)*
G04 Created by KiCad (PCBNEW 9.0.4) date 2026-08-24 12:27:48*
%MOMM*%
%LPD*%
G01*
G04 APERTURE LIST*
G04 Aperture macros list*
%AMRoundRect*
0 Rectangle with rounded corners*
0 $1 Rounding radius*
0 $2 $3 $4 $5 $6 $7 $8 $9 X,Y pos of 4 corners*
0 Add a 4 corners polygon primitive as box body*
4,1,4,$2,$3,$4,$5,$6,$7,$8,$9,$2,$3,0*
0 Add four circle primitives for the rounded corners*
1,1,$1+$1,$2,$3*
1,1,$1+$1,$4,$5*
1,1,$1+$1,$6,$7*
1,1,$1+$1,$8,$9*
0 Add four rect primitives between the rounded corners*
20,1,$1+$1,$2,$3,$4,$5,0*
20,1,$1+$1,$4,$5,$6,$7,0*
20,1,$1+$1,$6,$7,$8,$9,0*
20,1,$1+$1,$8,$9,$2,$3,0*%
G04 Aperture macros list end*
%ADD10RoundRect,0.250001X0.949999X-0.949999X0.949999X0.949999X-0.949999X0.949999X-0.949999X-0.949999X0*%
%ADD11C,2.400000*%
%ADD12RoundRect,0.250000X-0.350000X-0.450000X0.350000X-0.450000X0.350000X0.450000X-0.350000X0.450000X0*%
%ADD13RoundRect,0.250001X-0.949999X-0.949999X0.949999X-0.949999X0.949999X0.949999X-0.949999X0.949999X0*%
%ADD14RoundRect,0.150000X-0.825000X-0.150000X0.825000X-0.150000X0.825000X0.150000X-0.825000X0.150000X0*%
%ADD15C,2.700000*%
%ADD16RoundRect,0.150000X-0.150000X-0.700000X0.150000X-0.700000X0.150000X0.700000X-0.150000X0.700000X0*%
%ADD17RoundRect,0.250000X-0.250000X-1.150000X0.250000X-1.150000X0.250000X1.150000X-0.250000X1.150000X0*%
%ADD18R,1.050000X1.500000*%
%ADD19O,1.050000X1.500000*%
%ADD20RoundRect,0.250000X-0.337500X-0.475000X0.337500X-0.475000X0.337500X0.475000X-0.337500X0.475000X0*%
%ADD21RoundRect,0.250000X-0.650000X0.412500X-0.650000X-0.412500X0.650000X-0.412500X0.650000X0.412500X0*%
G04 APERTURE END LIST*
D10*
%TO.C,J3*%
X133267500Y-115000000D03*
D11*
X133267500Y-111500000D03*
X133267500Y-108000000D03*
%TD*%
D12*
%TO.C,R2*%
X149750000Y-96000000D03*
X151750000Y-96000000D03*
%TD*%
D13*
%TO.C,J4*%
X164250000Y-121247500D03*
D11*
X167750000Y-121247500D03*
%TD*%
D12*
%TO.C,R1*%
X149750000Y-89000000D03*
X151750000Y-89000000D03*
%TD*%
D14*
%TO.C,U1*%
X163000000Y-100230000D03*
X163000000Y-101500000D03*
X163000000Y-102770000D03*
X163000000Y-104040000D03*
X163000000Y-105310000D03*
X163000000Y-106580000D03*
X163000000Y-107850000D03*
X167950000Y-107850000D03*
X167950000Y-106580000D03*
X167950000Y-105310000D03*
X167950000Y-104040000D03*
X167950000Y-102770000D03*
X167950000Y-101500000D03*
X167950000Y-100230000D03*
%TD*%
D15*
%TO.C,REF\u002A\u002A*%
X192000000Y-88000000D03*
%TD*%
D12*
%TO.C,R4*%
X149750000Y-108000000D03*
X151750000Y-108000000D03*
%TD*%
D16*
%TO.C,J1*%
X179130000Y-92390000D03*
X180380000Y-92390000D03*
X181630000Y-92390000D03*
X182880000Y-92390000D03*
X184130000Y-92390000D03*
D17*
X177280000Y-89040000D03*
X185980000Y-89040000D03*
%TD*%
D15*
%TO.C,REF\u002A\u002A*%
X130500000Y-88000000D03*
%TD*%
%TO.C,REF\u002A\u002A*%
X130500000Y-127600000D03*
%TD*%
D10*
%TO.C,J2*%
X133000000Y-101000000D03*
D11*
X133000000Y-97500000D03*
X133000000Y-94000000D03*
%TD*%
D15*
%TO.C,REF\u002A\u002A*%
X192000000Y-127500000D03*
%TD*%
D18*
%TO.C,Q2*%
X143230000Y-90000000D03*
D19*
X144500000Y-90000000D03*
X145770000Y-90000000D03*
%TD*%
D20*
%TO.C,C1*%
X174425000Y-99500000D03*
X176500000Y-99500000D03*
%TD*%
D18*
%TO.C,Q1*%
X142730000Y-103860000D03*
D19*
X144000000Y-103860000D03*
X145270000Y-103860000D03*
%TD*%
D12*
%TO.C,R3*%
X150000000Y-103000000D03*
X152000000Y-103000000D03*
%TD*%
D21*
%TO.C,C2*%
X174000000Y-119622500D03*
X174000000Y-122747500D03*
%TD*%
M02*
